<svg width="512" height="512" version="1.1" xmlns="http://www.w3.org/2000/svg" desc="Created with imagetracer.js version 1.2.6" ><path fill="rgb(254,146,63)" stroke="rgb(254,146,63)" stroke-width="1" opacity="0.9921568627450981" d="M 327.5 139 L 441.5 139 L 444 141.5 L 444 163.5 L 443.5 164 L 325 164 L 325 141.5 L 327.5 139 Z " /><path fill="rgb(254,146,63)" stroke="rgb(254,146,63)" stroke-width="1" opacity="0.9921568627450981" d="M 419.5 175 L 425 175.5 L 419.5 176 L 419.5 175 Z " /><path fill="rgb(254,146,63)" stroke="rgb(254,146,63)" stroke-width="1" opacity="0.9921568627450981" d="M 416.5 176 L 415.5 178 L 416.5 176 Z " /><path fill="rgb(254,146,63)" stroke="rgb(254,146,63)" stroke-width="1" opacity="0.9921568627450981" d="M 415.5 218 L 416.5 220 L 415.5 218 Z " /><path fill="rgb(254,146,63)" stroke="rgb(254,146,63)" stroke-width="1" opacity="0.9921568627450981" d="M 419.5 220 L 425 220.5 L 419.5 221 L 419.5 220 Z " /><path fill="rgb(254,146,63)" stroke="rgb(254,146,63)" stroke-width="1" opacity="0.9921568627450981" d="M 402.5 229 L 403.5 231 L 402.5 229 Z " /><path fill="rgb(254,146,63)" stroke="rgb(254,146,63)" stroke-width="1" opacity="0.9921568627450981" d="M 404.5 232 L 405 234.5 L 404 234.5 L 404.5 232 Z " /><path fill="rgb(254,146,63)" stroke="rgb(254,146,63)" stroke-width="1" opacity="0.9921568627450981" d="M 428.5 236 L 427.5 238 L 428.5 236 Z " /><path fill="rgb(254,146,63)" stroke="rgb(254,146,63)" stroke-width="1" opacity="0.9921568627450981" d="M 119.5 288 Q 124.8 286.8 126 289.5 L 127 293.5 L 124.5 297 L 120.5 298 L 118 297 L 117 290.5 L 119.5 288 Z " /><path fill="rgb(254,146,63)" stroke="rgb(254,146,63)" stroke-width="1" opacity="0.9921568627450981" d="M 109.5 294 L 114 296.5 L 115 300.5 L 112.5 304 L 109.5 305 L 105 301.5 Q 104 296 107.5 295 L 109.5 294 Z " /><path fill="rgb(254,146,63)" stroke="rgb(254,146,63)" stroke-width="1" opacity="0.9921568627450981" d="M 131.5 295 Q 136.8 293.8 138 296.5 L 139 300.5 L 136.5 304 L 133.5 305 L 129 301.5 Q 128 296 131.5 295 Z " /><path fill="rgb(254,146,63)" stroke="rgb(254,146,63)" stroke-width="1" opacity="0.9921568627450981" d="M 297.5 299 L 296.5 301 L 297.5 299 Z " /><path fill="rgb(254,146,63)" stroke="rgb(254,146,63)" stroke-width="1" opacity="0.9921568627450981" d="M 326.5 301 L 331.5 307 L 326.5 301 Z " /><path fill="rgb(254,146,63)" stroke="rgb(254,146,63)" stroke-width="1" opacity="0.9921568627450981" d="M 368.5 301 L 371.5 305 L 368.5 301 Z " /><path fill="rgb(254,146,63)" stroke="rgb(254,146,63)" stroke-width="1" opacity="0.9921568627450981" d="M 291.5 305 L 290.5 307 L 291.5 305 Z " /><path fill="rgb(254,146,63)" stroke="rgb(254,146,63)" stroke-width="1" opacity="0.9921568627450981" d="M 109.5 308 L 114 310.5 L 115 314.5 L 112.5 318 L 109.5 319 L 105 315.5 Q 104 310 107.5 309 L 109.5 308 Z " /><path fill="rgb(254,146,63)" stroke="rgb(254,146,63)" stroke-width="1" opacity="0.9921568627450981" d="M 133.5 308 L 138 310.5 L 139 314.5 L 136.5 318 Q 130.3 319.3 129 315.5 Q 128 310 131.5 309 L 133.5 308 Z " /><path fill="rgb(254,146,63)" stroke="rgb(254,146,63)" stroke-width="1" opacity="0.9921568627450981" d="M 120.5 315 L 126 317.5 L 127 321.5 L 124.5 325 Q 118.3 326.3 117 322.5 L 118 316 L 120.5 315 Z " /><path fill="rgb(254,146,63)" stroke="rgb(254,146,63)" stroke-width="1" opacity="0.9921568627450981" d="M 286.5 317 L 287 322.5 L 286 322.5 L 286.5 317 Z " /><path fill="rgb(251,189,191)" stroke="rgb(251,189,191)" stroke-width="1" opacity="0.6588235294117647" d="M 263.5 1 L 303.5 1 L 304.5 2 L 318.5 2 L 319.5 3 L 336.5 4 L 364.5 9 Q 389 14.5 410.5 23 L 444 39.5 L 442.5 39 L 434.5 35 L 433.5 128 L 432.5 34 L 432 128 L 414.5 129 L 413.5 128 L 329.5 128 L 324.5 129 L 318 133.5 L 314 142.5 L 314 183 L 304.5 181 L 294.5 186 L 293 171.5 L 290 162.5 Q 283.5 148 271.5 139 L 254.5 130 L 228.5 126 L 222 120.5 L 223 119.5 L 223 5 L 226 5.5 L 226 123.5 L 227 123.5 L 227 5.5 L 228.5 5 L 237.5 3 L 262.5 2 L 263.5 1 Z M 338 63 L 335 64 L 333 72 L 331 74 L 324 75 L 323 82 L 326 84 L 331 85 Q 335 86 334 93 L 339 96 L 342 95 L 344 92 L 345 86 L 353 84 Q 356 83 355 78 Q 354 73 348 74 Q 343 73 344 67 Q 343 62 338 63 Z M 292 76 L 288 80 L 289 85 L 296 86 Q 299 85 298 79 Q 297 75 292 76 Z M 280 83 L 277 84 L 276 90 Q 277 94 284 93 Q 287 92 286 86 Q 285 82 280 83 Z M 304 83 L 300 87 L 301 92 L 308 93 Q 311 92 310 86 Q 309 82 304 83 Z M 280 97 L 277 98 L 276 101 Q 275 106 280 107 L 285 106 Q 287 105 286 100 Q 285 96 280 97 Z M 304 97 L 301 98 L 300 101 Q 299 106 304 107 L 309 106 Q 311 105 310 100 Q 309 96 304 97 Z M 292 104 L 289 105 L 288 108 Q 287 113 292 114 L 297 113 Q 299 112 298 107 Q 297 103 292 104 Z " /><path fill="rgb(251,189,191)" stroke="rgb(251,189,191)" stroke-width="1" opacity="0.6588235294117647" d="M 219.5 6 L 220 114.5 L 217 112.5 L 219 112.5 L 219.5 6 Z " /><path fill="rgb(251,189,191)" stroke="rgb(251,189,191)" stroke-width="1" opacity="0.6588235294117647" d="M 447.5 41 L 451 43.5 L 449.5 43 L 447.5 41 Z " /><path fill="rgb(251,189,191)" stroke="rgb(251,189,191)" stroke-width="1" opacity="0.6588235294117647" d="M 452.5 44 L 453.5 46 L 452.5 44 Z " /><path fill="rgb(251,189,191)" stroke="rgb(251,189,191)" stroke-width="1" opacity="0.6588235294117647" d="M 455.5 46 L 456.5 48 L 455.5 46 Z " /><path fill="rgb(251,189,191)" stroke="rgb(251,189,191)" stroke-width="1" opacity="0.6588235294117647" d="M 458.5 48 L 459.5 50 L 458.5 48 Z " /><path fill="rgb(251,189,191)" stroke="rgb(251,189,191)" stroke-width="1" opacity="0.6588235294117647" d="M 461.5 50 L 463.5 53 L 461.5 50 Z " /><path fill="rgb(251,189,191)" stroke="rgb(251,189,191)" stroke-width="1" opacity="0.6588235294117647" d="M 465.5 53 L 467.5 56 L 465.5 53 Z " /><path fill="rgb(251,189,191)" stroke="rgb(251,189,191)" stroke-width="1" opacity="0.6588235294117647" d="M 471.5 58 L 483.5 71 L 471.5 58 Z " /><path fill="rgb(251,189,191)" stroke="rgb(251,189,191)" stroke-width="1" opacity="0.6588235294117647" d="M 485.5 73 L 487.5 76 L 485.5 73 Z " /><path fill="rgb(251,189,191)" stroke="rgb(251,189,191)" stroke-width="1" opacity="0.6588235294117647" d="M 489.5 78 L 490.5 80 L 489.5 78 Z " /><path fill="rgb(251,189,191)" stroke="rgb(251,189,191)" stroke-width="1" opacity="0.6588235294117647" d="M 492.5 82 L 493.5 84 L 492.5 82 Z " /><path fill="rgb(251,189,191)" stroke="rgb(251,189,191)" stroke-width="1" opacity="0.6588235294117647" d="M 498.5 92 L 499.5 94 L 498.5 92 Z " /><path fill="rgb(251,189,191)" stroke="rgb(251,189,191)" stroke-width="1" opacity="0.6588235294117647" d="M 195.5 116 L 209 116.5 L 195.5 117 L 195.5 116 Z " /><path fill="rgb(251,189,191)" stroke="rgb(251,189,191)" stroke-width="1" opacity="0.6588235294117647" d="M 510.5 124 L 511 126.5 L 510 126.5 L 510.5 124 Z " /><path fill="rgb(251,189,191)" stroke="rgb(251,189,191)" stroke-width="1" opacity="0.6588235294117647" d="M 511.5 131 L 512 136.5 L 511 136.5 L 511.5 131 Z " /><path fill="rgb(251,189,191)" stroke="rgb(251,189,191)" stroke-width="1" opacity="0.6588235294117647" d="M 511.5 146 L 512 151.5 L 511 151.5 L 511.5 146 Z " /><path fill="rgb(251,189,191)" stroke="rgb(251,189,191)" stroke-width="1" opacity="0.6588235294117647" d="M 500.5 185 L 499.5 187 L 500.5 185 Z " /><path fill="rgb(251,189,191)" stroke="rgb(251,189,191)" stroke-width="1" opacity="0.6588235294117647" d="M 497.5 190 L 496.5 192 L 497.5 190 Z " /><path fill="rgb(251,189,191)" stroke="rgb(251,189,191)" stroke-width="1" opacity="0.6588235294117647" d="M 495.5 193 L 494.5 195 L 495.5 193 Z " /><path fill="rgb(251,189,191)" stroke="rgb(251,189,191)" stroke-width="1" opacity="0.6588235294117647" d="M 493.5 196 L 491.5 199 L 493.5 196 Z " /><path fill="rgb(251,189,191)" stroke="rgb(251,189,191)" stroke-width="1" opacity="0.6588235294117647" d="M 489.5 201 L 485.5 206 L 489.5 201 Z " /><path fill="rgb(251,189,191)" stroke="rgb(251,189,191)" stroke-width="1" opacity="0.6588235294117647" d="M 480.5 210 L 476.5 215 L 480.5 210 Z " /><path fill="rgb(251,189,191)" stroke="rgb(251,189,191)" stroke-width="1" opacity="0.6588235294117647" d="M 473.5 216 L 472.5 218 L 473.5 216 Z " /><path fill="rgb(251,189,191)" stroke="rgb(251,189,191)" stroke-width="1" opacity="0.6588235294117647" d="M 470.5 218 L 469.5 220 L 470.5 218 Z " /><path fill="rgb(251,189,191)" stroke="rgb(251,189,191)" stroke-width="1" opacity="0.6588235294117647" d="M 464.5 222 L 463.5 224 L 464.5 222 Z " /><path fill="rgb(251,189,191)" stroke="rgb(251,189,191)" stroke-width="1" opacity="0.6588235294117647" d="M 120.5 287 L 123 287.5 L 120.5 288 L 120.5 287 Z " /><path fill="rgb(251,189,191)" stroke="rgb(251,189,191)" stroke-width="1" opacity="0.6588235294117647" d="M 118.5 288 L 117.5 290 L 118.5 288 Z " /><path fill="rgb(251,189,191)" stroke="rgb(251,189,191)" stroke-width="1" opacity="0.6588235294117647" d="M 116.5 291 L 117 293.5 L 116 293.5 L 116.5 291 Z " /><path fill="rgb(251,189,191)" stroke="rgb(251,189,191)" stroke-width="1" opacity="0.6588235294117647" d="M 132.5 294 L 136 294.5 L 132.5 295 L 132.5 294 Z " /><path fill="rgb(251,189,191)" stroke="rgb(251,189,191)" stroke-width="1" opacity="0.6588235294117647" d="M 106.5 295 L 105.5 297 L 106.5 295 Z " /><path fill="rgb(251,189,191)" stroke="rgb(251,189,191)" stroke-width="1" opacity="0.6588235294117647" d="M 130.5 295 L 129.5 297 L 130.5 295 Z " /><path fill="rgb(251,189,191)" stroke="rgb(251,189,191)" stroke-width="1" opacity="0.6588235294117647" d="M 104.5 298 L 105 300.5 L 104 300.5 L 104.5 298 Z " /><path fill="rgb(251,189,191)" stroke="rgb(251,189,191)" stroke-width="1" opacity="0.6588235294117647" d="M 128.5 298 L 129 300.5 L 128 300.5 L 128.5 298 Z " /><path fill="rgb(251,189,191)" stroke="rgb(251,189,191)" stroke-width="1" opacity="0.6588235294117647" d="M 105.5 302 L 106.5 304 L 105.5 302 Z " /><path fill="rgb(251,189,191)" stroke="rgb(251,189,191)" stroke-width="1" opacity="0.6588235294117647" d="M 129.5 302 L 130.5 304 L 129.5 302 Z " /><path fill="rgb(251,189,191)" stroke="rgb(251,189,191)" stroke-width="1" opacity="0.6588235294117647" d="M 106.5 309 L 105.5 311 L 106.5 309 Z " /><path fill="rgb(251,189,191)" stroke="rgb(251,189,191)" stroke-width="1" opacity="0.6588235294117647" d="M 130.5 309 L 129.5 311 L 130.5 309 Z " /><path fill="rgb(251,189,191)" stroke="rgb(251,189,191)" stroke-width="1" opacity="0.6588235294117647" d="M 104.5 312 L 105 314.5 L 104 314.5 L 104.5 312 Z " /><path fill="rgb(251,189,191)" stroke="rgb(251,189,191)" stroke-width="1" opacity="0.6588235294117647" d="M 128.5 312 L 129 314.5 L 128 314.5 L 128.5 312 Z " /><path fill="rgb(251,189,191)" stroke="rgb(251,189,191)" stroke-width="1" opacity="0.6588235294117647" d="M 105.5 316 L 106.5 318 L 105.5 316 Z " /><path fill="rgb(251,189,191)" stroke="rgb(251,189,191)" stroke-width="1" opacity="0.6588235294117647" d="M 129.5 316 L 130.5 318 L 129.5 316 Z " /><path fill="rgb(251,189,191)" stroke="rgb(251,189,191)" stroke-width="1" opacity="0.6588235294117647" d="M 161.5 316 L 163 323.5 L 162 323.5 L 161.5 316 Z " /><path fill="rgb(251,189,191)" stroke="rgb(251,189,191)" stroke-width="1" opacity="0.6588235294117647" d="M 132.5 318 L 136 318.5 L 132.5 319 L 132.5 318 Z " /><path fill="rgb(251,189,191)" stroke="rgb(251,189,191)" stroke-width="1" opacity="0.6588235294117647" d="M 116.5 319 L 117 321.5 L 116 321.5 L 116.5 319 Z " /><path fill="rgb(251,189,191)" stroke="rgb(251,189,191)" stroke-width="1" opacity="0.6588235294117647" d="M 117.5 323 L 118.5 325 L 117.5 323 Z " /><path fill="rgb(251,189,191)" stroke="rgb(251,189,191)" stroke-width="1" opacity="0.6588235294117647" d="M 120.5 325 L 123 325.5 L 120.5 326 L 120.5 325 Z " /><path fill="rgb(251,189,191)" stroke="rgb(251,189,191)" stroke-width="1" opacity="0.6588235294117647" d="M 136.5 336 L 135.5 338 L 136.5 336 Z " /><path fill="rgb(251,189,191)" stroke="rgb(251,189,191)" stroke-width="1" opacity="0.6588235294117647" d="M 143.5 336 L 144.5 338 L 143.5 336 Z " /><path fill="rgb(251,189,191)" stroke="rgb(251,189,191)" stroke-width="1" opacity="0.6588235294117647" d="M 150.5 346 L 153 346.5 L 150.5 347 L 150.5 346 Z " /><path fill="rgb(251,189,191)" stroke="rgb(251,189,191)" stroke-width="1" opacity="0.6588235294117647" d="M 125.5 347 L 124.5 349 L 125.5 347 Z " /><path fill="rgb(251,189,191)" stroke="rgb(251,189,191)" stroke-width="1" opacity="0.6588235294117647" d="M 154.5 347 L 155.5 349 L 154.5 347 Z " /><path fill="rgb(251,189,191)" stroke="rgb(251,189,191)" stroke-width="1" opacity="0.6588235294117647" d="M 123.5 350 L 124 352.5 L 123 352.5 L 123.5 350 Z " /><path fill="rgb(251,189,191)" stroke="rgb(251,189,191)" stroke-width="1" opacity="0.6588235294117647" d="M 156.5 350 L 157 352.5 L 156 352.5 L 156.5 350 Z " /><path fill="rgb(251,189,191)" stroke="rgb(251,189,191)" stroke-width="1" opacity="0.6588235294117647" d="M 161 435 L 163 435.5 L 163 459 L 161 458.5 L 161 435 Z " /><path fill="rgb(251,189,191)" stroke="rgb(251,189,191)" stroke-width="1" opacity="0.6588235294117647" d="M 165 435 L 279.5 435 L 280 436.5 Q 281 441 287.5 440 Q 288.7 437.8 293.5 439 L 293 440.5 Q 285.4 456.4 272.5 467 Q 253.6 484.6 227.5 495 L 226.5 460 L 226 494.5 L 224.5 496 L 223 495.5 L 223 460.5 L 220 460 L 219.5 498 L 219 460 L 183.5 460 L 182.5 459 L 179.5 460 L 177.5 459 L 175.5 460 L 174.5 459 L 165 459 L 165 435 Z " /><path fill="rgb(9,9,211)" stroke="rgb(9,9,211)" stroke-width="1" opacity="0.058823529411764705" d="M 454.5 229 L 455 250.5 L 454 250.5 L 454.5 229 Z " /><path fill="rgb(9,9,211)" stroke="rgb(9,9,211)" stroke-width="1" opacity="0.058823529411764705" d="M 453.5 252 L 454 253.5 L 450 259.5 L 450 272.5 L 449 273.5 L 449 275.5 Q 449.5 280.5 445.5 281 L 442.5 283 L 395.5 283 L 394.5 284 Q 391.2 269.3 384 258.5 L 404 258 L 406.5 262 L 408.5 263 L 440.5 263 L 450 259 L 453.5 252 Z " /><path fill="rgb(9,9,211)" stroke="rgb(9,9,211)" stroke-width="1" opacity="0.058823529411764705" d="M 395.5 285 L 396 287.5 L 395 287.5 L 395.5 285 Z " /><path fill="rgb(9,9,211)" stroke="rgb(9,9,211)" stroke-width="1" opacity="0.058823529411764705" d="M 396.5 289 L 397 291.5 L 396 291.5 L 396.5 289 Z " /><path fill="rgb(9,9,211)" stroke="rgb(9,9,211)" stroke-width="1" opacity="0.058823529411764705" d="M 397.5 294 L 398 296.5 L 397 296.5 L 397.5 294 Z " /><path fill="rgb(9,9,211)" stroke="rgb(9,9,211)" stroke-width="1" opacity="0.058823529411764705" d="M 398.5 299 L 399 301.5 L 398 301.5 L 398.5 299 Z " /><path fill="rgb(9,9,211)" stroke="rgb(9,9,211)" stroke-width="1" opacity="0.058823529411764705" d="M 399.5 304 L 400 308.5 L 399 308.5 L 399.5 304 Z " /><path fill="rgb(9,9,211)" stroke="rgb(9,9,211)" stroke-width="1" opacity="0.058823529411764705" d="M 400.5 312 L 401 317.5 L 400 317.5 L 400.5 312 Z " /><path fill="rgb(9,9,211)" stroke="rgb(9,9,211)" stroke-width="1" opacity="0.058823529411764705" d="M 401.5 324 L 402 340.5 L 401 340.5 L 401.5 324 Z " /><path fill="rgb(9,9,211)" stroke="rgb(9,9,211)" stroke-width="1" opacity="0.058823529411764705" d="M 400.5 346 L 401 350.5 L 400 350.5 L 400.5 346 Z " /><path fill="rgb(9,9,211)" stroke="rgb(9,9,211)" stroke-width="1" opacity="0.058823529411764705" d="M 399.5 353 L 400 355.5 L 399 355.5 L 399.5 353 Z " /><path fill="rgb(9,9,211)" stroke="rgb(9,9,211)" stroke-width="1" opacity="0.058823529411764705" d="M 398.5 357 L 399 359.5 L 398 359.5 L 398.5 357 Z " /><path fill="rgb(9,9,211)" stroke="rgb(9,9,211)" stroke-width="1" opacity="0.058823529411764705" d="M 397.5 361 L 398 363.5 L 397 363.5 L 397.5 361 Z " /><path fill="rgb(9,9,211)" stroke="rgb(9,9,211)" stroke-width="1" opacity="0.058823529411764705" d="M 395.5 368 L 396 374.5 L 390 395.5 L 379 415 Q 376.3 413.9 377 416.5 L 368.5 426 L 349.5 440 L 333.5 448 L 305.5 457 L 303.5 457 L 288.5 460 L 281 460 L 295.5 438 Q 348.7 429.7 378 397.5 Q 389.4 385.4 395.5 368 Z " /><path fill="rgb(254,76,77)" stroke="rgb(254,76,77)" stroke-width="1" opacity="0.996078431372549" d="M 121.5 59 L 129 59.5 L 121.5 60 L 121.5 59 Z " /><path fill="rgb(254,76,77)" stroke="rgb(254,76,77)" stroke-width="1" opacity="0.996078431372549" d="M 114.5 60 L 117 60.5 L 114.5 61 L 114.5 60 Z " /><path fill="rgb(254,76,77)" stroke="rgb(254,76,77)" stroke-width="1" opacity="0.996078431372549" d="M 135.5 60 L 138 60.5 L 135.5 61 L 135.5 60 Z " /><path fill="rgb(254,76,77)" stroke="rgb(254,76,77)" stroke-width="1" opacity="0.996078431372549" d="M 98.5 65 L 100 65.5 L 95.5 68 L 96.5 66 L 98.5 65 Z " /><path fill="rgb(254,76,77)" stroke="rgb(254,76,77)" stroke-width="1" opacity="0.996078431372549" d="M 158.5 68 L 159.5 70 L 158.5 68 Z " /><path fill="rgb(254,76,77)" stroke="rgb(254,76,77)" stroke-width="1" opacity="0.996078431372549" d="M 91.5 69 L 90.5 71 L 91.5 69 Z " /><path fill="rgb(254,76,77)" stroke="rgb(254,76,77)" stroke-width="1" opacity="0.996078431372549" d="M 161.5 70 L 162.5 72 L 161.5 70 Z " /><path fill="rgb(254,76,77)" stroke="rgb(254,76,77)" stroke-width="1" opacity="0.996078431372549" d="M 88.5 71 L 86.5 74 L 88.5 71 Z " /><path fill="rgb(254,76,77)" stroke="rgb(254,76,77)" stroke-width="1" opacity="0.996078431372549" d="M 164.5 72 L 167.5 76 L 164.5 72 Z " /><path fill="rgb(254,76,77)" stroke="rgb(254,76,77)" stroke-width="1" opacity="0.996078431372549" d="M 84.5 74 L 76.5 83 L 84.5 74 Z " /><path fill="rgb(254,76,77)" stroke="rgb(254,76,77)" stroke-width="1" opacity="0.996078431372549" d="M 291.5 76 L 295 76.5 L 291.5 77 L 291.5 76 Z " /><path fill="rgb(254,76,77)" stroke="rgb(254,76,77)" stroke-width="1" opacity="0.996078431372549" d="M 170.5 77 L 172.5 80 L 170.5 77 Z " /><path fill="rgb(254,76,77)" stroke="rgb(254,76,77)" stroke-width="1" opacity="0.996078431372549" d="M 289.5 78 L 289 79.5 L 290 83.5 L 288 82.5 Q 287.3 78.8 289.5 78 Z " /><path fill="rgb(254,76,77)" stroke="rgb(254,76,77)" stroke-width="1" opacity="0.996078431372549" d="M 174.5 82 L 177.5 86 L 174.5 82 Z " /><path fill="rgb(254,76,77)" stroke="rgb(254,76,77)" stroke-width="1" opacity="0.996078431372549" d="M 279.5 83 L 283 83.5 L 279.5 84 L 279.5 83 Z " /><path fill="rgb(254,76,77)" stroke="rgb(254,76,77)" stroke-width="1" opacity="0.996078431372549" d="M 297.5 83 L 295.5 86 L 294 85.5 L 297.5 83 Z " /><path fill="rgb(254,76,77)" stroke="rgb(254,76,77)" stroke-width="1" opacity="0.996078431372549" d="M 303.5 83 L 305 83.5 L 301 86.5 L 300.5 90 L 300 86.5 L 303.5 83 Z " /><path fill="rgb(254,76,77)" stroke="rgb(254,76,77)" stroke-width="1" opacity="0.996078431372549" d="M 75.5 84 L 73.5 87 L 75.5 84 Z " /><path fill="rgb(254,76,77)" stroke="rgb(254,76,77)" stroke-width="1" opacity="0.996078431372549" d="M 308.5 84 L 309.5 86 L 308.5 84 Z " /><path fill="rgb(254,76,77)" stroke="rgb(254,76,77)" stroke-width="1" opacity="0.996078431372549" d="M 277.5 85 L 277 86.5 Q 276.2 91.7 280 92.5 L 276 89.5 Q 275.3 85.8 277.5 85 Z " /><path fill="rgb(254,76,77)" stroke="rgb(254,76,77)" stroke-width="1" opacity="0.996078431372549" d="M 178.5 87 L 179.5 89 L 178.5 87 Z " /><path fill="rgb(254,76,77)" stroke="rgb(254,76,77)" stroke-width="1" opacity="0.996078431372549" d="M 72.5 88 L 71.5 90 L 72.5 88 Z " /><path fill="rgb(254,76,77)" stroke="rgb(254,76,77)" stroke-width="1" opacity="0.996078431372549" d="M 309.5 89 L 310 90.5 L 308 91.5 L 309.5 89 Z " /><path fill="rgb(254,76,77)" stroke="rgb(254,76,77)" stroke-width="1" opacity="0.996078431372549" d="M 180.5 90 L 183 93.5 L 181 92.5 L 180.5 90 Z " /><path fill="rgb(254,76,77)" stroke="rgb(254,76,77)" stroke-width="1" opacity="0.996078431372549" d="M 302.5 91 L 307 92.5 L 303.5 93 L 302.5 91 Z " /><path fill="rgb(254,76,77)" stroke="rgb(254,76,77)" stroke-width="1" opacity="0.996078431372549" d="M 69.5 93 L 69 94.5 L 67.5 98 L 67 96.5 L 69.5 93 Z " /><path fill="rgb(254,76,77)" stroke="rgb(254,76,77)" stroke-width="1" opacity="0.996078431372549" d="M 284.5 98 L 286 100.5 L 285 100.5 L 284.5 98 Z " /><path fill="rgb(254,76,77)" stroke="rgb(254,76,77)" stroke-width="1" opacity="0.996078431372549" d="M 308.5 98 L 309.5 100 L 308.5 98 Z " /><path fill="rgb(254,76,77)" stroke="rgb(254,76,77)" stroke-width="1" opacity="0.996078431372549" d="M 301.5 99 L 301 100.5 L 300.5 104 L 300 100.5 L 301.5 99 Z " /><path fill="rgb(254,76,77)" stroke="rgb(254,76,77)" stroke-width="1" opacity="0.996078431372549" d="M 276.5 100 Q 276.4 105.1 280 106.5 L 276 103.5 L 276.5 100 Z " /><path fill="rgb(254,76,77)" stroke="rgb(254,76,77)" stroke-width="1" opacity="0.996078431372549" d="M 309.5 103 L 310 104.5 L 308 105.5 L 309.5 103 Z " /><path fill="rgb(254,76,77)" stroke="rgb(254,76,77)" stroke-width="1" opacity="0.996078431372549" d="M 294.5 104 L 298 106.5 L 297.5 108 L 295.5 105 L 294.5 104 Z " /><path fill="rgb(254,76,77)" stroke="rgb(254,76,77)" stroke-width="1" opacity="0.996078431372549" d="M 303.5 106 L 307 106.5 L 303.5 107 L 303.5 106 Z " /><path fill="rgb(254,76,77)" stroke="rgb(254,76,77)" stroke-width="1" opacity="0.996078431372549" d="M 288.5 107 L 289 109.5 L 288 109.5 L 288.5 107 Z " /><path fill="rgb(254,76,77)" stroke="rgb(254,76,77)" stroke-width="1" opacity="0.996078431372549" d="M 188.5 109 L 190 111.5 L 188 110.5 L 188.5 109 Z " /><path fill="rgb(254,76,77)" stroke="rgb(254,76,77)" stroke-width="1" opacity="0.996078431372549" d="M 62.5 112 L 63 114.5 L 62 114.5 L 62.5 112 Z " /><path fill="rgb(254,76,77)" stroke="rgb(254,76,77)" stroke-width="1" opacity="0.996078431372549" d="M 290.5 112 L 295 113.5 L 291.5 114 L 290.5 112 Z " /><path fill="rgb(254,76,77)" stroke="rgb(254,76,77)" stroke-width="1" opacity="0.996078431372549" d="M 194.5 114 L 195 116.5 L 194 116.5 L 194.5 114 Z " /><path fill="rgb(254,76,77)" stroke="rgb(254,76,77)" stroke-width="1" opacity="0.996078431372549" d="M 61.5 121 L 62 126.5 L 61 126.5 L 61.5 121 Z " /><path fill="rgb(254,76,77)" stroke="rgb(254,76,77)" stroke-width="1" opacity="0.996078431372549" d="M 62.5 132 L 63 134.5 L 62 134.5 L 62.5 132 Z " /><path fill="rgb(254,76,77)" stroke="rgb(254,76,77)" stroke-width="1" opacity="0.996078431372549" d="M 190.5 133 L 190 134.5 L 189.5 136 L 189 134.5 L 190.5 133 Z " /><path fill="rgb(254,76,77)" stroke="rgb(254,76,77)" stroke-width="1" opacity="0.996078431372549" d="M 183.5 151 L 184 152.5 L 182 153.5 L 183.5 151 Z " /><path fill="rgb(254,76,77)" stroke="rgb(254,76,77)" stroke-width="1" opacity="0.996078431372549" d="M 69.5 154 L 72 157.5 L 70 156.5 L 69.5 154 Z " /><path fill="rgb(254,76,77)" stroke="rgb(254,76,77)" stroke-width="1" opacity="0.996078431372549" d="M 180.5 157 L 179.5 159 L 180.5 157 Z " /><path fill="rgb(254,76,77)" stroke="rgb(254,76,77)" stroke-width="1" opacity="0.996078431372549" d="M 72.5 159 L 73.5 161 L 72.5 159 Z " /><path fill="rgb(254,76,77)" stroke="rgb(254,76,77)" stroke-width="1" opacity="0.996078431372549" d="M 178.5 160 L 177.5 162 L 178.5 160 Z " /><path fill="rgb(254,76,77)" stroke="rgb(254,76,77)" stroke-width="1" opacity="0.996078431372549" d="M 74.5 162 L 77.5 166 L 74.5 162 Z " /><path fill="rgb(254,76,77)" stroke="rgb(254,76,77)" stroke-width="1" opacity="0.996078431372549" d="M 176.5 163 L 165.5 175 L 176.5 163 Z " /><path fill="rgb(254,76,77)" stroke="rgb(254,76,77)" stroke-width="1" opacity="0.996078431372549" d="M 84.5 172 L 86.5 175 L 84.5 172 Z " /><path fill="rgb(254,76,77)" stroke="rgb(254,76,77)" stroke-width="1" opacity="0.996078431372549" d="M 88.5 175 L 90.5 178 L 88.5 175 Z " /><path fill="rgb(254,76,77)" stroke="rgb(254,76,77)" stroke-width="1" opacity="0.996078431372549" d="M 163.5 175 L 162.5 177 L 163.5 175 Z " /><path fill="rgb(254,76,77)" stroke="rgb(254,76,77)" stroke-width="1" opacity="0.996078431372549" d="M 160.5 177 L 159.5 179 L 160.5 177 Z " /><path fill="rgb(254,76,77)" stroke="rgb(254,76,77)" stroke-width="1" opacity="0.996078431372549" d="M 94.5 179 L 98 181.5 L 96.5 181 L 94.5 179 Z " /><path fill="rgb(254,76,77)" stroke="rgb(254,76,77)" stroke-width="1" opacity="0.996078431372549" d="M 116.5 187 L 120 187.5 L 116.5 188 L 116.5 187 Z " /><path fill="rgb(254,76,77)" stroke="rgb(254,76,77)" stroke-width="1" opacity="0.996078431372549" d="M 132.5 187 L 135 187.5 L 132.5 188 L 132.5 187 Z " /><path fill="rgb(254,76,77)" stroke="rgb(254,76,77)" stroke-width="1" opacity="0.996078431372549" d="M 142.5 336 L 145 339.5 L 144 339.5 L 142.5 336 Z " /><path fill="rgb(254,76,77)" stroke="rgb(254,76,77)" stroke-width="1" opacity="0.996078431372549" d="M 136.5 337 L 135.5 339 L 136.5 337 Z " /><path fill="rgb(254,76,77)" stroke="rgb(254,76,77)" stroke-width="1" opacity="0.996078431372549" d="M 134.5 343 L 131.5 347 L 134.5 343 Z " /><path fill="rgb(254,76,77)" stroke="rgb(254,76,77)" stroke-width="1" opacity="0.996078431372549" d="M 145.5 343 L 146.5 345 L 145.5 343 Z " /><path fill="rgb(254,76,77)" stroke="rgb(254,76,77)" stroke-width="1" opacity="0.996078431372549" d="M 126.5 347 L 124.5 350 L 126.5 347 Z " /><path fill="rgb(254,76,77)" stroke="rgb(254,76,77)" stroke-width="1" opacity="0.996078431372549" d="M 153.5 347 L 155.5 350 L 153.5 347 Z " /><path fill="rgb(254,76,77)" stroke="rgb(254,76,77)" stroke-width="1" opacity="0.996078431372549" d="M 128.5 356 L 131 356.5 L 128.5 357 L 128.5 356 Z " /><path fill="rgb(254,76,77)" stroke="rgb(254,76,77)" stroke-width="1" opacity="0.996078431372549" d="M 132.5 357 L 135 360.5 L 134 360.5 L 132.5 357 Z " /><path fill="rgb(254,76,77)" stroke="rgb(254,76,77)" stroke-width="1" opacity="0.996078431372549" d="M 138.5 367 L 142 367.5 L 138.5 368 L 138.5 367 Z " /><path fill="rgb(0,0,0)" stroke="rgb(0,0,0)" stroke-width="1" opacity="0" d="M 0 0 L 268 0.5 L 238.5 2 L 237.5 3 L 229.5 3 L 228.5 4 L 221.5 4 L 220.5 5 L 196.5 8 L 161.5 16 L 134.5 24 L 100.5 37 L 66.5 54 Q 43 67 25 85.5 L 14 100.5 L 4 127.5 L 1 142.5 L 1 175.5 L 8 198.5 L 30 237.5 L 43 264.5 L 49 284.5 L 52 306.5 L 51 307.5 L 50 328.5 L 46 345.5 L 29 395.5 L 25 411.5 L 24 425.5 L 23 426.5 L 23 437.5 L 26 453.5 L 32 467.5 Q 38.7 478.8 48.5 487 Q 63 499 83.5 505 L 106.5 510 L 127 511.5 L 0 512 L 0 0 Z " /><path fill="rgb(0,0,0)" stroke="rgb(0,0,0)" stroke-width="1" opacity="0" d="M 296.5 0 L 512 0 L 512 127.5 L 511 127.5 L 509 114.5 L 500 92.5 Q 489.3 73.3 473.5 59 Q 460.1 46.9 443.5 38 Q 424 27 401.5 19 L 371.5 10 L 352.5 6 L 334.5 4 L 333.5 3 L 325.5 3 L 324.5 2 L 314.5 2 L 313.5 1 L 296.5 1 L 296.5 0 Z " /><path fill="rgb(0,0,0)" stroke="rgb(0,0,0)" stroke-width="1" opacity="0" d="M 511.5 155 L 512 512 L 147 511.5 L 162.5 511 L 163.5 510 L 184.5 508 L 210.5 502 L 225.5 497 Q 258.6 484.1 280.5 460 L 288.5 460 L 305.5 457 L 333.5 448 Q 356.7 438.2 373 421.5 Q 386.3 407.8 393 387.5 L 396 374.5 L 396 367.5 L 401 350.5 L 402 324.5 L 401 323.5 L 400 304.5 L 395 283 L 442.5 283 L 449 277.5 L 450 274.5 L 450 259.5 L 455 250.5 L 455 228 Q 476.2 219.5 490 202.5 L 505 178.5 L 510 164.5 L 511.5 155 Z M 438 294 L 436 295 L 434 297 L 433 303 L 431 305 L 425 306 L 422 310 L 423 315 L 425 316 L 431 317 Q 434 319 434 326 L 438 328 L 443 327 Q 446 325 445 320 Q 447 316 454 316 L 456 313 L 455 308 L 446 304 L 444 297 Q 443 293 438 294 Z " /><path fill="rgb(116,100,198)" stroke="rgb(116,100,198)" stroke-width="1" opacity="0.23529411764705882" d="M 116.5 49 L 120 49.5 L 116.5 50 L 116.5 49 Z " /><path fill="rgb(116,100,198)" stroke="rgb(116,100,198)" stroke-width="1" opacity="0.23529411764705882" d="M 132.5 49 L 135 49.5 L 132.5 50 L 132.5 49 Z " /><path fill="rgb(116,100,198)" stroke="rgb(116,100,198)" stroke-width="1" opacity="0.23529411764705882" d="M 81.5 63 L 80.5 65 L 81.5 63 Z " /><path fill="rgb(116,100,198)" stroke="rgb(116,100,198)" stroke-width="1" opacity="0.23529411764705882" d="M 76.5 67 L 69.5 75 L 76.5 67 Z " /><path fill="rgb(116,100,198)" stroke="rgb(116,100,198)" stroke-width="1" opacity="0.23529411764705882" d="M 183.5 76 L 184.5 78 L 183.5 76 Z " /><path fill="rgb(116,100,198)" stroke="rgb(116,100,198)" stroke-width="1" opacity="0.23529411764705882" d="M 66.5 78 L 65.5 80 L 66.5 78 Z " /><path fill="rgb(116,100,198)" stroke="rgb(116,100,198)" stroke-width="1" opacity="0.23529411764705882" d="M 186.5 80 L 187.5 82 L 186.5 80 Z " /><path fill="rgb(116,100,198)" stroke="rgb(116,100,198)" stroke-width="1" opacity="0.23529411764705882" d="M 211.5 112 L 210.5 114 L 211.5 112 Z " /><path fill="rgb(116,100,198)" stroke="rgb(116,100,198)" stroke-width="1" opacity="0.23529411764705882" d="M 233.5 127 L 237 127.5 L 233.5 128 L 233.5 127 Z " /><path fill="rgb(116,100,198)" stroke="rgb(116,100,198)" stroke-width="1" opacity="0.23529411764705882" d="M 329.5 128 L 414 128.5 L 329.5 129 L 329.5 128 Z " /><path fill="rgb(116,100,198)" stroke="rgb(116,100,198)" stroke-width="1" opacity="0.23529411764705882" d="M 319.5 132 L 318.5 134 L 319.5 132 Z " /><path fill="rgb(116,100,198)" stroke="rgb(116,100,198)" stroke-width="1" opacity="0.23529411764705882" d="M 314.5 142 L 315 184 L 313 183.5 L 314 182.5 L 314.5 142 Z " /><path fill="rgb(116,100,198)" stroke="rgb(116,100,198)" stroke-width="1" opacity="0.23529411764705882" d="M 57.5 154 Q 64.6 170.4 77.5 181 L 92.5 191 L 106 196.5 L 106 213 L 99.5 213 Q 81.8 205.8 71 191.5 L 61 174.5 L 57 160.5 L 57.5 154 Z " /><path fill="rgb(116,100,198)" stroke="rgb(116,100,198)" stroke-width="1" opacity="0.23529411764705882" d="M 304.5 181 L 307 181.5 L 304.5 182 L 304.5 181 Z " /><path fill="rgb(116,100,198)" stroke="rgb(116,100,198)" stroke-width="1" opacity="0.23529411764705882" d="M 107 196 Q 114.2 199.2 126 198 L 128 209.5 L 127 210.5 L 127 218 L 125 217.5 L 125 199.5 L 124 199.5 L 123.5 218 L 122.5 199 L 122 218 L 119 216.5 L 117.5 214 L 107 213 L 107 196 Z " /><path fill="rgb(116,100,198)" stroke="rgb(116,100,198)" stroke-width="1" opacity="0.23529411764705882" d="M 56.5 231 L 85 231.5 L 56.5 232 L 56.5 231 Z " /><path fill="rgb(116,100,198)" stroke="rgb(116,100,198)" stroke-width="1" opacity="0.23529411764705882" d="M 93.5 231 L 96 231.5 L 93.5 232 L 93.5 231 Z " /><path fill="rgb(116,100,198)" stroke="rgb(116,100,198)" stroke-width="1" opacity="0.23529411764705882" d="M 97.5 231 L 101 231.5 L 97.5 232 L 97.5 231 Z " /><path fill="rgb(116,100,198)" stroke="rgb(116,100,198)" stroke-width="1" opacity="0.23529411764705882" d="M 117.5 232 L 119.5 235 L 117.5 232 Z " /><path fill="rgb(116,100,198)" stroke="rgb(116,100,198)" stroke-width="1" opacity="0.23529411764705882" d="M 118.5 240 L 119 245.5 L 116.5 248 L 107 248 L 107 242 L 116.5 242 L 118.5 240 Z " /><path fill="rgb(116,100,198)" stroke="rgb(116,100,198)" stroke-width="1" opacity="0.23529411764705882" d="M 92.5 242 L 106 242 L 106 248 L 94.5 248 L 92 245.5 L 91 243.5 L 92.5 242 Z " /><path fill="rgb(116,100,198)" stroke="rgb(116,100,198)" stroke-width="1" opacity="0.23529411764705882" d="M 52.5 251 L 51.5 253 L 52.5 251 Z " /><path fill="rgb(116,100,198)" stroke="rgb(116,100,198)" stroke-width="1" opacity="0.23529411764705882" d="M 52.5 259 L 56.5 261 L 78.5 261 L 82.5 260 L 84.5 260 L 118.5 260 L 119 263.5 Q 117.7 267.7 111.5 267 L 109.5 266 L 108.5 267 L 54.5 267 Q 50.2 266.3 51 260.5 L 52.5 259 Z M 107 261 L 106 266 L 107 266 L 107 261 Z " /><path fill="rgb(116,100,198)" stroke="rgb(116,100,198)" stroke-width="1" opacity="0.23529411764705882" d="M 55.5 275 L 94.5 276 L 96.5 276 L 106 276 L 106 285 L 53.5 285 L 52 283.5 L 51 279.5 L 53.5 276 L 55.5 275 Z " /><path fill="rgb(116,100,198)" stroke="rgb(116,100,198)" stroke-width="1" opacity="0.23529411764705882" d="M 107 276 L 116.5 276 L 119 278.5 Q 120 284 116.5 285 L 107 285 L 107 276 Z " /><path fill="rgb(116,100,198)" stroke="rgb(116,100,198)" stroke-width="1" opacity="0.23529411764705882" d="M 437.5 294 Q 442.6 293.4 444 296.5 L 443.5 298 Q 442.7 294.2 437.5 295 L 434.5 299 L 434 296.5 L 437.5 294 Z " /><path fill="rgb(116,100,198)" stroke="rgb(116,100,198)" stroke-width="1" opacity="0.23529411764705882" d="M 444.5 299 Q 444.3 303.7 447.5 305 L 451 305.5 L 447.5 306 Q 442.6 304.6 444.5 299 Z " /><path fill="rgb(116,100,198)" stroke="rgb(116,100,198)" stroke-width="1" opacity="0.23529411764705882" d="M 433.5 300 L 434 302.5 Q 433.3 306.8 427.5 306 L 427.5 305 Q 432.3 305.8 433 302.5 L 433.5 300 Z " /><path fill="rgb(116,100,198)" stroke="rgb(116,100,198)" stroke-width="1" opacity="0.23529411764705882" d="M 424.5 306 L 426 306.5 Q 422.2 307.2 423 312.5 L 427 315.5 L 425.5 316 Q 421.3 315.3 422 309.5 L 424.5 306 Z " /><path fill="rgb(116,100,198)" stroke="rgb(116,100,198)" stroke-width="1" opacity="0.23529411764705882" d="M 452.5 306 L 455 307.5 L 456 312.5 L 455 315 L 451.5 316 L 451.5 315 L 455 312.5 L 455 309.5 L 452.5 306 Z " /><path fill="rgb(116,100,198)" stroke="rgb(116,100,198)" stroke-width="1" opacity="0.23529411764705882" d="M 429.5 316 L 434 319.5 L 433.5 321 L 430.5 317 L 429.5 316 Z " /><path fill="rgb(116,100,198)" stroke="rgb(116,100,198)" stroke-width="1" opacity="0.23529411764705882" d="M 447.5 316 L 449 316.5 L 445 319.5 Q 445.5 325 442.5 327 L 437.5 328 L 434 326 L 434.5 323 L 437.5 327 Q 442.3 327.8 443 324.5 L 444 319.5 L 447.5 316 Z " /><path fill="rgb(116,100,198)" stroke="rgb(116,100,198)" stroke-width="1" opacity="0.23529411764705882" d="M 164.5 326 L 165 328.5 L 164 328.5 L 164.5 326 Z " /><path fill="rgb(116,100,198)" stroke="rgb(116,100,198)" stroke-width="1" opacity="0.23529411764705882" d="M 167.5 349 L 168 363.5 L 167 363.5 L 167.5 349 Z " /><path fill="rgb(116,100,198)" stroke="rgb(116,100,198)" stroke-width="1" opacity="0.23529411764705882" d="M 166.5 372 L 167 374.5 L 166 374.5 L 166.5 372 Z " /><path fill="rgb(116,100,198)" stroke="rgb(116,100,198)" stroke-width="1" opacity="0.23529411764705882" d="M 150.5 437 L 151.5 439 L 150.5 437 Z " /><path fill="rgb(116,100,198)" stroke="rgb(116,100,198)" stroke-width="1" opacity="0.23529411764705882" d="M 291.5 444 L 290.5 446 L 291.5 444 Z " /><path fill="rgb(116,100,198)" stroke="rgb(116,100,198)" stroke-width="1" opacity="0.23529411764705882" d="M 289.5 447 L 288.5 449 L 289.5 447 Z " /><path fill="rgb(116,100,198)" stroke="rgb(116,100,198)" stroke-width="1" opacity="0.23529411764705882" d="M 287.5 450 L 286.5 452 L 287.5 450 Z " /><path fill="rgb(116,100,198)" stroke="rgb(116,100,198)" stroke-width="1" opacity="0.23529411764705882" d="M 285.5 453 L 282.5 457 L 285.5 453 Z " /><path fill="rgb(239,238,254)" stroke="rgb(239,238,254)" stroke-width="1" opacity="0.996078431372549" d="M 118.5 82 L 133.5 82 L 139 86.5 L 140 88.5 L 140 109 L 157.5 109 Q 164.1 109.9 167 114.5 Q 169.6 120.4 168 130.5 L 163.5 137 L 160.5 138 L 140 138 L 140 159.5 L 136.5 164 L 132.5 166 L 119.5 166 L 113 161.5 L 112 159.5 L 112 139.5 L 110.5 138 L 90.5 138 L 85 133.5 L 84 131.5 L 84 116.5 L 89.5 110 L 112 109 L 112 87.5 L 116.5 83 L 118.5 82 Z " /><path fill="rgb(239,238,254)" stroke="rgb(239,238,254)" stroke-width="1" opacity="0.996078431372549" d="M 331.5 85 L 332.5 87 L 331.5 85 Z " /><path fill="rgb(239,238,254)" stroke="rgb(239,238,254)" stroke-width="1" opacity="0.996078431372549" d="M 325 164 L 444 164 L 444 249.5 L 439.5 253 L 406.5 253 L 404 255.5 L 402.5 258 L 384.5 258 L 383 256.5 L 371 238.5 Q 377.3 239.3 379 235.5 Q 380 230 376.5 229 Q 367.7 227.2 364.5 231 L 352 220.5 Q 354.8 218.8 354 213.5 Q 351.7 210 346 211 L 346 203 L 349.5 203 L 353 202 L 354 196.5 L 353 194 L 343.5 193 L 340.5 194 L 335.5 191 L 325 188 L 325 164 Z M 418 175 L 414 179 L 415 184 L 420 186 L 428 185 Q 431 184 430 178 Q 427 173 418 175 Z M 342 176 L 339 180 L 343 185 Q 349 186 353 184 Q 355 183 354 179 L 352 176 L 342 176 Z M 367 176 Q 364 177 365 183 L 368 185 L 377 185 Q 380 184 379 179 L 377 176 L 367 176 Z M 393 176 Q 389 177 390 183 L 393 185 L 402 185 Q 405 184 404 178 L 403 176 L 393 176 Z M 369 193 L 367 194 Q 364 195 365 201 L 369 203 L 378 202 Q 380 201 379 196 Q 376 192 369 193 Z M 394 193 L 392 194 Q 389 195 390 201 L 394 203 L 403 202 Q 405 201 404 196 Q 401 192 394 193 Z M 418 193 L 415 194 L 414 197 L 415 202 Q 419 204 428 203 Q 431 202 430 196 L 428 193 L 418 193 Z M 420 210 L 417 211 L 414 215 Q 413 220 418 221 Q 425 223 429 220 Q 431 219 430 214 Q 428 209 420 210 Z M 368 211 Q 364 212 365 219 L 367 220 L 377 220 Q 380 219 379 214 L 377 211 L 368 211 Z M 393 211 Q 389 212 390 218 L 393 220 L 403 220 Q 405 219 404 214 L 402 211 L 393 211 Z M 393 228 Q 388 229 389 236 L 394 239 L 403 238 Q 406 237 405 232 Q 403 226 393 228 Z M 419 228 L 414 232 L 415 237 L 419 239 Q 428 241 430 236 L 429 229 Q 426 227 419 228 Z " /><path fill="rgb(239,238,254)" stroke="rgb(239,238,254)" stroke-width="1" opacity="0.996078431372549" d="M 167 409 L 347 409.5 L 322.5 421 Q 305.5 427.5 283.5 429 L 280 432.5 L 279.5 435 L 160 435 L 162 421.5 L 167 409 Z " /><path fill="rgb(254,208,184)" stroke="rgb(254,208,184)" stroke-width="1" opacity="0.9921568627450981" d="M 432.5 34 L 433.5 128 L 434.5 35 Q 464.7 48.8 485 72.5 Q 497.4 86.6 505 105.5 L 511 127.5 L 512 145.5 L 511 146.5 L 510 160.5 L 504 178.5 Q 495.3 196.8 481.5 210 Q 470 221 454.5 228 L 454 139.5 Q 452.4 132.6 446.5 130 L 443.5 129 L 422 128.5 L 432 128 L 432.5 34 Z " /><path fill="rgb(254,208,184)" stroke="rgb(254,208,184)" stroke-width="1" opacity="0.9921568627450981" d="M 120.5 81 L 132 81.5 L 120.5 82 L 120.5 81 Z " /><path fill="rgb(254,208,184)" stroke="rgb(254,208,184)" stroke-width="1" opacity="0.9921568627450981" d="M 136.5 83 L 138.5 86 L 136.5 83 Z " /><path fill="rgb(254,208,184)" stroke="rgb(254,208,184)" stroke-width="1" opacity="0.9921568627450981" d="M 140.5 90 L 141 108.5 L 140 108.5 L 140.5 90 Z " /><path fill="rgb(254,208,184)" stroke="rgb(254,208,184)" stroke-width="1" opacity="0.9921568627450981" d="M 164.5 111 L 166.5 114 L 164.5 111 Z " /><path fill="rgb(254,208,184)" stroke="rgb(254,208,184)" stroke-width="1" opacity="0.9921568627450981" d="M 195.5 117 L 196 130.5 L 195 130.5 L 195.5 117 Z " /><path fill="rgb(254,208,184)" stroke="rgb(254,208,184)" stroke-width="1" opacity="0.9921568627450981" d="M 83.5 119 L 84 128.5 L 83 128.5 L 83.5 119 Z " /><path fill="rgb(254,208,184)" stroke="rgb(254,208,184)" stroke-width="1" opacity="0.9921568627450981" d="M 213.5 126 L 216.5 130 L 213.5 126 Z " /><path fill="rgb(254,208,184)" stroke="rgb(254,208,184)" stroke-width="1" opacity="0.9921568627450981" d="M 218.5 131 L 220.5 134 L 218.5 131 Z " /><path fill="rgb(254,208,184)" stroke="rgb(254,208,184)" stroke-width="1" opacity="0.9921568627450981" d="M 93.5 138 L 111 138.5 L 93.5 139 L 93.5 138 Z " /><path fill="rgb(254,208,184)" stroke="rgb(254,208,184)" stroke-width="1" opacity="0.9921568627450981" d="M 141.5 138 L 158 138.5 L 141 139 L 140.5 157 L 140 139.5 L 141.5 138 Z " /><path fill="rgb(254,208,184)" stroke="rgb(254,208,184)" stroke-width="1" opacity="0.9921568627450981" d="M 241.5 138 L 244 138.5 L 241.5 139 L 241.5 138 Z " /><path fill="rgb(254,208,184)" stroke="rgb(254,208,184)" stroke-width="1" opacity="0.9921568627450981" d="M 260.5 144 L 261.5 146 L 260.5 144 Z " /><path fill="rgb(254,208,184)" stroke="rgb(254,208,184)" stroke-width="1" opacity="0.9921568627450981" d="M 263.5 146 L 264.5 148 L 263.5 146 Z " /><path fill="rgb(254,208,184)" stroke="rgb(254,208,184)" stroke-width="1" opacity="0.9921568627450981" d="M 266.5 148 L 273.5 156 L 266.5 148 Z " /><path fill="rgb(254,208,184)" stroke="rgb(254,208,184)" stroke-width="1" opacity="0.9921568627450981" d="M 111.5 156 L 112 158.5 L 111 158.5 L 111.5 156 Z " /><path fill="rgb(254,208,184)" stroke="rgb(254,208,184)" stroke-width="1" opacity="0.9921568627450981" d="M 274.5 157 L 275.5 159 L 274.5 157 Z " /><path fill="rgb(254,208,184)" stroke="rgb(254,208,184)" stroke-width="1" opacity="0.9921568627450981" d="M 276.5 160 L 277.5 162 L 276.5 160 Z " /><path fill="rgb(254,208,184)" stroke="rgb(254,208,184)" stroke-width="1" opacity="0.9921568627450981" d="M 190.5 161 L 189.5 163 L 190.5 161 Z " /><path fill="rgb(254,208,184)" stroke="rgb(254,208,184)" stroke-width="1" opacity="0.9921568627450981" d="M 113.5 162 L 114.5 164 L 113.5 162 Z " /><path fill="rgb(254,208,184)" stroke="rgb(254,208,184)" stroke-width="1" opacity="0.9921568627450981" d="M 187.5 166 L 185.5 169 L 187.5 166 Z " /><path fill="rgb(254,208,184)" stroke="rgb(254,208,184)" stroke-width="1" opacity="0.9921568627450981" d="M 184.5 170 L 173.5 182 L 184.5 170 Z " /><path fill="rgb(254,208,184)" stroke="rgb(254,208,184)" stroke-width="1" opacity="0.9921568627450981" d="M 235.5 170 L 237.5 173 L 235.5 170 Z " /><path fill="rgb(254,208,184)" stroke="rgb(254,208,184)" stroke-width="1" opacity="0.9921568627450981" d="M 283.5 179 L 284 189.5 L 283 189.5 L 283.5 179 Z " /><path fill="rgb(254,208,184)" stroke="rgb(254,208,184)" stroke-width="1" opacity="0.9921568627450981" d="M 414.5 179 L 415 181.5 L 414 181.5 L 414.5 179 Z " /><path fill="rgb(254,208,184)" stroke="rgb(254,208,184)" stroke-width="1" opacity="0.9921568627450981" d="M 170.5 183 L 169.5 185 L 170.5 183 Z " /><path fill="rgb(254,208,184)" stroke="rgb(254,208,184)" stroke-width="1" opacity="0.9921568627450981" d="M 415.5 183 L 416.5 185 L 415.5 183 Z " /><path fill="rgb(254,208,184)" stroke="rgb(254,208,184)" stroke-width="1" opacity="0.9921568627450981" d="M 164.5 187 L 163.5 189 L 164.5 187 Z " /><path fill="rgb(254,208,184)" stroke="rgb(254,208,184)" stroke-width="1" opacity="0.9921568627450981" d="M 303.5 192 L 302.5 194 L 303.5 192 Z " /><path fill="rgb(254,208,184)" stroke="rgb(254,208,184)" stroke-width="1" opacity="0.9921568627450981" d="M 427.5 193 L 429.5 196 L 427.5 193 Z " /><path fill="rgb(254,208,184)" stroke="rgb(254,208,184)" stroke-width="1" opacity="0.9921568627450981" d="M 300.5 194 L 299.5 196 L 300.5 194 Z " /><path fill="rgb(254,208,184)" stroke="rgb(254,208,184)" stroke-width="1" opacity="0.9921568627450981" d="M 279.5 195 L 276.5 199 L 279.5 195 Z " /><path fill="rgb(254,208,184)" stroke="rgb(254,208,184)" stroke-width="1" opacity="0.9921568627450981" d="M 414.5 196 L 415 199.5 L 414 199.5 L 414.5 196 Z " /><path fill="rgb(254,208,184)" stroke="rgb(254,208,184)" stroke-width="1" opacity="0.9921568627450981" d="M 137.5 197 L 139 197.5 L 137 198 L 136.5 200 L 136 198.5 L 137.5 197 Z " /><path fill="rgb(254,208,184)" stroke="rgb(254,208,184)" stroke-width="1" opacity="0.9921568627450981" d="M 295.5 197 L 294.5 199 L 295.5 197 Z " /><path fill="rgb(254,208,184)" stroke="rgb(254,208,184)" stroke-width="1" opacity="0.9921568627450981" d="M 180.5 200 L 178.5 203 L 180.5 200 Z " /><path fill="rgb(254,208,184)" stroke="rgb(254,208,184)" stroke-width="1" opacity="0.9921568627450981" d="M 290.5 200 L 289.5 202 L 290.5 200 Z " /><path fill="rgb(254,208,184)" stroke="rgb(254,208,184)" stroke-width="1" opacity="0.9921568627450981" d="M 429.5 200 L 427.5 203 L 429.5 200 Z " /><path fill="rgb(254,208,184)" stroke="rgb(254,208,184)" stroke-width="1" opacity="0.9921568627450981" d="M 274.5 201 L 273.5 203 L 274.5 201 Z " /><path fill="rgb(254,208,184)" stroke="rgb(254,208,184)" stroke-width="1" opacity="0.9921568627450981" d="M 333.5 201 Q 338 203 336 211.5 L 332.5 213 L 332.5 212 L 335 211.5 L 335 203.5 L 333.5 201 Z " /><path fill="rgb(254,208,184)" stroke="rgb(254,208,184)" stroke-width="1" opacity="0.9921568627450981" d="M 187.5 202 L 189 204.5 L 188 204.5 L 187.5 202 Z " /><path fill="rgb(254,208,184)" stroke="rgb(254,208,184)" stroke-width="1" opacity="0.9921568627450981" d="M 286.5 203 L 283.5 207 L 286.5 203 Z " /><path fill="rgb(254,208,184)" stroke="rgb(254,208,184)" stroke-width="1" opacity="0.9921568627450981" d="M 272.5 204 L 271.5 206 L 272.5 204 Z " /><path fill="rgb(254,208,184)" stroke="rgb(254,208,184)" stroke-width="1" opacity="0.9921568627450981" d="M 282.5 208 L 281.5 210 L 282.5 208 Z " /><path fill="rgb(254,208,184)" stroke="rgb(254,208,184)" stroke-width="1" opacity="0.9921568627450981" d="M 416.5 211 L 415.5 213 L 416.5 211 Z " /><path fill="rgb(254,208,184)" stroke="rgb(254,208,184)" stroke-width="1" opacity="0.9921568627450981" d="M 181.5 214 L 182 216 L 175 215.5 L 181.5 214 Z " /><path fill="rgb(254,208,184)" stroke="rgb(254,208,184)" stroke-width="1" opacity="0.9921568627450981" d="M 414.5 214 L 415 216.5 L 414 216.5 L 414.5 214 Z " /><path fill="rgb(254,208,184)" stroke="rgb(254,208,184)" stroke-width="1" opacity="0.9921568627450981" d="M 322.5 215 L 324 215.5 L 319.5 218 L 320.5 216 L 322.5 215 Z " /><path fill="rgb(254,208,184)" stroke="rgb(254,208,184)" stroke-width="1" opacity="0.9921568627450981" d="M 173.5 216 L 172.5 218 L 173.5 216 Z " /><path fill="rgb(254,208,184)" stroke="rgb(254,208,184)" stroke-width="1" opacity="0.9921568627450981" d="M 140.5 217 L 141 219.5 L 140 219.5 L 140.5 217 Z " /><path fill="rgb(254,208,184)" stroke="rgb(254,208,184)" stroke-width="1" opacity="0.9921568627450981" d="M 317.5 218 L 315.5 221 L 317.5 218 Z " /><path fill="rgb(254,208,184)" stroke="rgb(254,208,184)" stroke-width="1" opacity="0.9921568627450981" d="M 171.5 219 L 172 222.5 L 171 222.5 L 171.5 219 Z " /><path fill="rgb(254,208,184)" stroke="rgb(254,208,184)" stroke-width="1" opacity="0.9921568627450981" d="M 312.5 223 L 310.5 226 L 312.5 223 Z " /><path fill="rgb(254,208,184)" stroke="rgb(254,208,184)" stroke-width="1" opacity="0.9921568627450981" d="M 331.5 223 L 339.5 224 L 352 233.5 L 350.5 233 Q 338.3 234.8 332 242.5 L 326 252.5 L 307 296 Q 295.3 297.5 290 306.5 Q 285.6 312.1 286 322.5 L 287 325 L 273.5 330 L 263.5 330 Q 249.6 327.4 242 318.5 L 243.5 318 L 244.5 319 L 260.5 319 Q 276.5 314.5 285 302.5 Q 302.1 270.6 316 235.5 L 324.5 226 L 331.5 223 Z " /><path fill="rgb(254,208,184)" stroke="rgb(254,208,184)" stroke-width="1" opacity="0.9921568627450981" d="M 259.5 228 L 261 230.5 L 259 229.5 L 259.5 228 Z " /><path fill="rgb(254,208,184)" stroke="rgb(254,208,184)" stroke-width="1" opacity="0.9921568627450981" d="M 393.5 228 L 401 228.5 L 393.5 229 L 393.5 228 Z " /><path fill="rgb(254,208,184)" stroke="rgb(254,208,184)" stroke-width="1" opacity="0.9921568627450981" d="M 418.5 228 L 426 228.5 L 418.5 229 L 418.5 228 Z " /><path fill="rgb(254,208,184)" stroke="rgb(254,208,184)" stroke-width="1" opacity="0.9921568627450981" d="M 416.5 229 L 415.5 231 L 416.5 229 Z " /><path fill="rgb(254,208,184)" stroke="rgb(254,208,184)" stroke-width="1" opacity="0.9921568627450981" d="M 414.5 232 L 415 234.5 L 414 234.5 L 414.5 232 Z " /><path fill="rgb(254,208,184)" stroke="rgb(254,208,184)" stroke-width="1" opacity="0.9921568627450981" d="M 355.5 236 L 359.5 241 L 355.5 236 Z " /><path fill="rgb(254,208,184)" stroke="rgb(254,208,184)" stroke-width="1" opacity="0.9921568627450981" d="M 390.5 236 L 391.5 238 L 390.5 236 Z " /><path fill="rgb(254,208,184)" stroke="rgb(254,208,184)" stroke-width="1" opacity="0.9921568627450981" d="M 415.5 236 L 416.5 238 L 415.5 236 Z " /><path fill="rgb(254,208,184)" stroke="rgb(254,208,184)" stroke-width="1" opacity="0.9921568627450981" d="M 393.5 238 L 401 238.5 L 393.5 239 L 393.5 238 Z " /><path fill="rgb(254,208,184)" stroke="rgb(254,208,184)" stroke-width="1" opacity="0.9921568627450981" d="M 418.5 238 L 426 238.5 L 418.5 239 L 418.5 238 Z " /><path fill="rgb(254,208,184)" stroke="rgb(254,208,184)" stroke-width="1" opacity="0.9921568627450981" d="M 362.5 244 L 364.5 247 L 362.5 244 Z " /><path fill="rgb(254,208,184)" stroke="rgb(254,208,184)" stroke-width="1" opacity="0.9921568627450981" d="M 255.5 247 L 257.5 250 L 255.5 247 Z " /><path fill="rgb(254,208,184)" stroke="rgb(254,208,184)" stroke-width="1" opacity="0.9921568627450981" d="M 264.5 247 L 262.5 250 L 264.5 247 Z " /><path fill="rgb(254,208,184)" stroke="rgb(254,208,184)" stroke-width="1" opacity="0.9921568627450981" d="M 366.5 249 L 367.5 251 L 366.5 249 Z " /><path fill="rgb(254,208,184)" stroke="rgb(254,208,184)" stroke-width="1" opacity="0.9921568627450981" d="M 368.5 252 L 369.5 254 L 368.5 252 Z " /><path fill="rgb(254,208,184)" stroke="rgb(254,208,184)" stroke-width="1" opacity="0.9921568627450981" d="M 370.5 255 L 371.5 257 L 370.5 255 Z " /><path fill="rgb(254,208,184)" stroke="rgb(254,208,184)" stroke-width="1" opacity="0.9921568627450981" d="M 374.5 262 L 375.5 264 L 374.5 262 Z " /><path fill="rgb(254,208,184)" stroke="rgb(254,208,184)" stroke-width="1" opacity="0.9921568627450981" d="M 277.5 294 L 276.5 296 L 277.5 294 Z " /><path fill="rgb(254,208,184)" stroke="rgb(254,208,184)" stroke-width="1" opacity="0.9921568627450981" d="M 227.5 295 L 228.5 297 L 227.5 295 Z " /><path fill="rgb(254,208,184)" stroke="rgb(254,208,184)" stroke-width="1" opacity="0.9921568627450981" d="M 308.5 295 L 314 295.5 L 308.5 296 L 308.5 295 Z " /><path fill="rgb(254,208,184)" stroke="rgb(254,208,184)" stroke-width="1" opacity="0.9921568627450981" d="M 350.5 295 L 356 295.5 L 350.5 296 L 350.5 295 Z " /><path fill="rgb(254,208,184)" stroke="rgb(254,208,184)" stroke-width="1" opacity="0.9921568627450981" d="M 216.5 296 L 219 300.5 L 217 299.5 L 216.5 296 Z " /><path fill="rgb(254,208,184)" stroke="rgb(254,208,184)" stroke-width="1" opacity="0.9921568627450981" d="M 275.5 297 L 269.5 304 L 275.5 297 Z " /><path fill="rgb(254,208,184)" stroke="rgb(254,208,184)" stroke-width="1" opacity="0.9921568627450981" d="M 387.5 297 L 388 299.5 L 387 299.5 L 387.5 297 Z " /><path fill="rgb(254,208,184)" stroke="rgb(254,208,184)" stroke-width="1" opacity="0.9921568627450981" d="M 229.5 298 L 233.5 303 L 229.5 298 Z " /><path fill="rgb(254,208,184)" stroke="rgb(254,208,184)" stroke-width="1" opacity="0.9921568627450981" d="M 324.5 299 L 325.5 301 L 324.5 299 Z " /><path fill="rgb(254,208,184)" stroke="rgb(254,208,184)" stroke-width="1" opacity="0.9921568627450981" d="M 366.5 299 L 367.5 301 L 366.5 299 Z " /><path fill="rgb(254,208,184)" stroke="rgb(254,208,184)" stroke-width="1" opacity="0.9921568627450981" d="M 336.5 301 L 332.5 306 L 336.5 301 Z " /><path fill="rgb(254,208,184)" stroke="rgb(254,208,184)" stroke-width="1" opacity="0.9921568627450981" d="M 219.5 302 L 220.5 304 L 219.5 302 Z " /><path fill="rgb(254,208,184)" stroke="rgb(254,208,184)" stroke-width="1" opacity="0.9921568627450981" d="M 235.5 303 L 236.5 305 L 235.5 303 Z " /><path fill="rgb(254,208,184)" stroke="rgb(254,208,184)" stroke-width="1" opacity="0.9921568627450981" d="M 267.5 304 L 266.5 306 L 267.5 304 Z " /><path fill="rgb(254,208,184)" stroke="rgb(254,208,184)" stroke-width="1" opacity="0.9921568627450981" d="M 372.5 305 L 373.5 307 L 372.5 305 Z " /><path fill="rgb(254,208,184)" stroke="rgb(254,208,184)" stroke-width="1" opacity="0.9921568627450981" d="M 222.5 306 L 226.5 311 L 222.5 306 Z " /><path fill="rgb(254,208,184)" stroke="rgb(254,208,184)" stroke-width="1" opacity="0.9921568627450981" d="M 389.5 309 L 390 312.5 L 389 312.5 L 389.5 309 Z " /><path fill="rgb(254,208,184)" stroke="rgb(254,208,184)" stroke-width="1" opacity="0.9921568627450981" d="M 228.5 311 L 230.5 314 L 228.5 311 Z " /><path fill="rgb(254,208,184)" stroke="rgb(254,208,184)" stroke-width="1" opacity="0.9921568627450981" d="M 377.5 317 L 378 322.5 L 377 322.5 L 377.5 317 Z " /><path fill="rgb(254,208,184)" stroke="rgb(254,208,184)" stroke-width="1" opacity="0.9921568627450981" d="M 390.5 318 L 391 323.5 L 390 323.5 L 390.5 318 Z " /><path fill="rgb(254,208,184)" stroke="rgb(254,208,184)" stroke-width="1" opacity="0.9921568627450981" d="M 176.5 333 L 177 336.5 L 176 336.5 L 176.5 333 Z " /><path fill="rgb(254,208,184)" stroke="rgb(254,208,184)" stroke-width="1" opacity="0.9921568627450981" d="M 373.5 333 L 372.5 335 L 373.5 333 Z " /><path fill="rgb(254,208,184)" stroke="rgb(254,208,184)" stroke-width="1" opacity="0.9921568627450981" d="M 291.5 335 L 329.5 374 L 291.5 335 Z " /><path fill="rgb(254,208,184)" stroke="rgb(254,208,184)" stroke-width="1" opacity="0.9921568627450981" d="M 370.5 337 L 334.5 374 L 370.5 337 Z " /><path fill="rgb(254,208,184)" stroke="rgb(254,208,184)" stroke-width="1" opacity="0.9921568627450981" d="M 390.5 341 L 391 345.5 L 390 345.5 L 390.5 341 Z " /><path fill="rgb(254,208,184)" stroke="rgb(254,208,184)" stroke-width="1" opacity="0.9921568627450981" d="M 177.5 342 L 178 346.5 L 177 346.5 L 177.5 342 Z " /><path fill="rgb(254,208,184)" stroke="rgb(254,208,184)" stroke-width="1" opacity="0.9921568627450981" d="M 177.5 366 L 178 370.5 L 177 370.5 L 177.5 366 Z " /><path fill="rgb(254,208,184)" stroke="rgb(254,208,184)" stroke-width="1" opacity="0.9921568627450981" d="M 176.5 376 L 177 378.5 L 176 378.5 L 176.5 376 Z " /><path fill="rgb(254,208,184)" stroke="rgb(254,208,184)" stroke-width="1" opacity="0.9921568627450981" d="M 380.5 376 L 379.5 378 L 380.5 376 Z " /><path fill="rgb(254,208,184)" stroke="rgb(254,208,184)" stroke-width="1" opacity="0.9921568627450981" d="M 376.5 382 L 375.5 384 L 376.5 382 Z " /><path fill="rgb(254,208,184)" stroke="rgb(254,208,184)" stroke-width="1" opacity="0.9921568627450981" d="M 374.5 385 L 372.5 388 L 374.5 385 Z " /><path fill="rgb(254,208,184)" stroke="rgb(254,208,184)" stroke-width="1" opacity="0.9921568627450981" d="M 370.5 390 L 363.5 398 L 370.5 390 Z " /><path fill="rgb(254,208,184)" stroke="rgb(254,208,184)" stroke-width="1" opacity="0.9921568627450981" d="M 360.5 399 L 357.5 403 L 360.5 399 Z " /><path fill="rgb(254,208,184)" stroke="rgb(254,208,184)" stroke-width="1" opacity="0.9921568627450981" d="M 355.5 403 L 354.5 405 L 355.5 403 Z " /><path fill="rgb(254,208,184)" stroke="rgb(254,208,184)" stroke-width="1" opacity="0.9921568627450981" d="M 349.5 407 L 348.5 409 L 349.5 407 Z " /><path fill="rgb(255,214,187)" stroke="rgb(255,214,187)" stroke-width="1" opacity="1" d="M 111.5 91 L 112 108.5 L 111 108.5 L 111.5 91 Z " /><path fill="rgb(255,214,187)" stroke="rgb(255,214,187)" stroke-width="1" opacity="1" d="M 87.5 111 L 86.5 113 L 87.5 111 Z " /><path fill="rgb(255,214,187)" stroke="rgb(255,214,187)" stroke-width="1" opacity="1" d="M 196 117 L 208.5 117 L 209 119.5 Q 213 128.5 220.5 134 L 230.5 138 L 240.5 138 L 255.5 142 Q 266.8 147.2 274 156.5 Q 284.9 168.1 283 192.5 L 276 198.5 L 269 209.5 L 260.5 230 L 239 174.5 L 235.5 170 Q 229.3 168.8 228 172.5 L 228 178.5 L 231 186.5 L 254 245.5 L 257.5 250 Q 263.8 251.3 265 247.5 L 281 210.5 L 288.5 202 L 304.5 192 L 306.5 192 L 332.5 201 L 335 203.5 L 335 211.5 L 332.5 212 Q 317.2 214.7 310 225.5 L 278 293.5 L 268.5 304 L 256.5 309 L 247.5 309 Q 235.5 306 229 297.5 L 222 283.5 L 189 203.5 L 185.5 200 Q 179.3 198.8 178 202.5 L 178 207.5 L 181 215 Q 174.5 213.8 172 217.5 L 171 222.5 L 174.5 226 L 185.5 226 L 187 227.5 L 216 297.5 L 226.5 311 L 238.5 318 L 243.5 319 Q 248.1 324.9 255.5 328 L 263.5 330 L 273.5 330 L 287 325 L 287 328.5 L 291 335.5 L 329.5 374 L 334.5 374 L 371 337.5 Q 378.3 331.3 378 317.5 Q 375.8 304.8 366.5 299 Q 360.9 294.6 350.5 295 Q 338 297.5 331.5 306 Q 326.9 299.1 318.5 296 L 308.5 295 L 307 295.5 L 329 246.5 L 335.5 239 Q 341.3 234.3 350.5 233 L 362 243.5 Q 377.5 261.5 385 287.5 L 390 313.5 L 391 340.5 L 390 341.5 L 390 349.5 L 388 358.5 L 381 375.5 Q 373.2 389.2 361.5 399 L 347.5 409 L 168 409 Q 174 395.7 177 378.5 Q 175.3 372.2 178 370.5 L 178 342.5 L 173 314.5 L 166 292.5 Q 154.8 269.7 147 243.5 L 141 221.5 L 137 198 Q 168.5 192.3 185 170.5 L 196 151.5 L 199 141.5 L 199 135.5 L 195 133 L 196 130.5 L 196 117 Z " /><path fill="rgb(255,214,187)" stroke="rgb(255,214,187)" stroke-width="1" opacity="1" d="M 111.5 139 L 112 155.5 L 111 155.5 L 111.5 139 Z " /><path fill="rgb(255,214,187)" stroke="rgb(255,214,187)" stroke-width="1" opacity="1" d="M 419.5 185 L 426 185.5 L 419.5 186 L 419.5 185 Z " /><path fill="rgb(255,214,187)" stroke="rgb(255,214,187)" stroke-width="1" opacity="1" d="M 419.5 210 L 426 210.5 L 419.5 211 L 419.5 210 Z " /><path fill="rgb(255,77,77)" stroke="rgb(255,77,77)" stroke-width="1" opacity="1" d="M 117.5 60 L 134.5 60 L 146.5 63 Q 163.2 69.3 174 81.5 L 183 94.5 L 188 107.5 L 188 110.5 L 191.5 114 Q 195.3 112.8 194 116.5 L 195 117.5 L 195 132.5 L 192.5 133 L 189 134.5 Q 183.4 161.4 164.5 175 L 145.5 185 L 131.5 188 L 120.5 188 L 109.5 186 L 98.5 182 Q 86.4 176 78 166.5 Q 68.8 156.2 64 141.5 L 62 131.5 L 62 115.5 Q 67.2 88.2 85.5 74 Q 97.8 63.3 117.5 60 Z M 120 81 L 117 82 L 111 89 L 111 109 L 91 109 L 89 110 L 83 118 Q 81 129 85 135 L 93 139 L 111 139 L 111 159 L 113 163 L 118 166 L 135 166 L 138 164 L 141 158 L 141 139 L 160 139 L 166 136 L 168 133 L 168 116 L 167 114 L 162 109 L 141 109 L 141 90 L 139 86 L 133 81 L 120 81 Z " /><path fill="rgb(255,77,77)" stroke="rgb(255,77,77)" stroke-width="1" opacity="1" d="M 290 77 Q 295.4 75.5 297 78.5 L 298 82.5 L 292.5 86 L 290 85 L 289 79.5 L 290 77 Z " /><path fill="rgb(255,77,77)" stroke="rgb(255,77,77)" stroke-width="1" opacity="1" d="M 305.5 83 L 310 86.5 L 307.5 92 L 301 91 Q 299.8 85.5 303.5 84 L 305.5 83 Z " /><path fill="rgb(255,77,77)" stroke="rgb(255,77,77)" stroke-width="1" opacity="1" d="M 278 84 Q 283.4 82.5 285 85.5 L 286 91 L 280.5 93 Q 276.3 92.3 277 86.5 L 278 84 Z " /><path fill="rgb(255,77,77)" stroke="rgb(255,77,77)" stroke-width="1" opacity="1" d="M 280.5 97 L 282.5 98 L 284 97.5 L 286 102.5 L 283.5 106 L 280.5 107 Q 276 106 277 99.5 L 280.5 97 Z " /><path fill="rgb(255,77,77)" stroke="rgb(255,77,77)" stroke-width="1" opacity="1" d="M 304.5 97 L 310 100.5 L 307.5 106 Q 302.3 107.3 301 104.5 L 302 98 L 304.5 97 Z " /><path fill="rgb(255,77,77)" stroke="rgb(255,77,77)" stroke-width="1" opacity="1" d="M 292.5 104 L 297 106.5 L 298 109.5 L 295.5 113 L 289 112 Q 287.5 106.6 290.5 105 L 292.5 104 Z " /><path fill="rgb(255,77,77)" stroke="rgb(255,77,77)" stroke-width="1" opacity="1" d="M 417.5 176 L 427.5 176 L 429 177.5 L 430 180.5 L 426.5 185 Q 417.8 186.7 415 182.5 Q 414 177 417.5 176 Z " /><path fill="rgb(255,77,77)" stroke="rgb(255,77,77)" stroke-width="1" opacity="1" d="M 419.5 193 Q 426.8 191.8 429 195.5 L 430 198.5 L 427.5 202 L 419.5 203 L 416 202 L 415 196.5 L 416 194 L 419.5 193 Z " /><path fill="rgb(255,77,77)" stroke="rgb(255,77,77)" stroke-width="1" opacity="1" d="M 418.5 211 Q 427 209 429 213.5 L 430 216.5 L 427.5 220 L 417.5 220 L 415 217.5 Q 414 213 416.5 212 L 418.5 211 Z " /><path fill="rgb(255,77,77)" stroke="rgb(255,77,77)" stroke-width="1" opacity="1" d="M 392.5 229 L 401.5 229 L 404 231.5 Q 405 237 401.5 238 L 392.5 238 L 390 235.5 Q 389 230 392.5 229 Z " /><path fill="rgb(255,77,77)" stroke="rgb(255,77,77)" stroke-width="1" opacity="1" d="M 417.5 229 Q 425.7 227.9 429 230 L 430 234.5 Q 427.8 240.3 417.5 238 Q 414 237 415 231.5 L 417.5 229 Z " /><path fill="rgb(255,77,77)" stroke="rgb(255,77,77)" stroke-width="1" opacity="1" d="M 306.5 296 Q 325.4 295.1 331.5 307 Q 336.4 300.4 344.5 297 L 357.5 296 Q 367.8 298.8 373 306.5 L 377 315.5 L 377 324.5 L 371 336.5 L 334.5 373 L 330.5 374 L 291 334.5 Q 285.3 328.2 287 314.5 Q 289.5 306 295.5 301 L 306.5 296 Z " /><path fill="rgb(255,77,77)" stroke="rgb(255,77,77)" stroke-width="1" opacity="1" d="M 138.5 335 Q 143.5 334.5 144 338.5 L 146.5 345 Q 149.1 344.3 148 347 L 152.5 347 Q 156.8 347.8 156 353.5 L 153 355 Q 154.1 357.7 151.5 357 L 149.5 356 L 147 357 Q 148.1 359.7 145.5 359 L 145 361.5 L 142.5 367 Q 137.3 368.3 136 365.5 L 135 359.5 L 132.5 357 L 128.5 356 L 126.5 356 L 124 354.5 L 124 352.5 Q 123.5 347.5 127.5 347 L 130.5 346 L 131.5 347 L 135 343.5 L 134 342.5 L 137 337.5 L 138.5 335 Z " /><path fill="rgb(254,211,211)" stroke="rgb(254,211,211)" stroke-width="1" opacity="0.21568627450980393" d="M 268.5 0 L 296 0.5 L 268.5 1 L 268.5 0 Z " /><path fill="rgb(254,211,211)" stroke="rgb(254,211,211)" stroke-width="1" opacity="0.21568627450980393" d="M 249.5 1 L 263 1.5 L 249.5 2 L 249.5 1 Z " /><path fill="rgb(254,211,211)" stroke="rgb(254,211,211)" stroke-width="1" opacity="0.21568627450980393" d="M 304.5 1 L 314 1.5 L 304.5 2 L 304.5 1 Z " /><path fill="rgb(254,211,211)" stroke="rgb(254,211,211)" stroke-width="1" opacity="0.21568627450980393" d="M 238.5 2 L 248 2.5 L 238.5 3 L 238.5 2 Z " /><path fill="rgb(254,211,211)" stroke="rgb(254,211,211)" stroke-width="1" opacity="0.21568627450980393" d="M 319.5 2 L 325 2.5 L 319.5 3 L 319.5 2 Z " /><path fill="rgb(254,211,211)" stroke="rgb(254,211,211)" stroke-width="1" opacity="0.21568627450980393" d="M 229.5 3 L 237 3.5 L 227 5 L 226.5 124 L 226 5 L 223 5.5 L 223 119.5 L 221 118.5 L 220 116.5 L 219.5 6 L 218.5 113 L 213.5 111 L 209 114.5 L 208.5 116 L 195 116 Q 193.9 113.3 196.5 114 Q 200 112 199 105.5 Q 191.5 79.5 172.5 65 Q 162.6 56.4 148.5 52 L 134.5 49 L 116.5 49 Q 85.5 54.5 69 74.5 Q 58.1 86.6 53 104.5 L 51 115.5 L 51 132.5 L 54 146.5 L 57 153.5 L 57 160.5 L 61 174.5 Q 68.9 192.6 83.5 204 L 99 212.5 Q 92.6 212.1 91 216.5 L 92 223 L 94.5 224 L 116.5 224 Q 120.8 222.7 120 218 L 122 217.5 L 122 199.5 L 123 199.5 L 123.5 218 L 124.5 199 L 125 218 L 127 217.5 L 127 210.5 L 128 210.5 L 136 245.5 L 161 312.5 Q 160.2 320.2 162 324 Q 165.7 322.6 164 328.5 L 167 341.5 L 167 371.5 L 164 387.5 L 151 420.5 L 150 437.5 Q 151.4 440.6 156.5 440 L 159 439 L 160.5 435 L 161 459 L 163 458.5 L 163 435.5 L 165 435 L 165 459 L 174.5 459 L 176.5 460 L 178.5 459 L 181.5 460 L 183.5 460 L 219 460 L 219 497.5 L 220 497.5 L 220 460.5 L 223 460 L 223 495.5 L 224.5 496 L 226 494.5 L 226.5 460 L 227.5 495 Q 258.5 482.5 279.5 460 L 270.5 470 Q 246.4 491.9 210.5 502 L 184.5 508 L 163.5 510 L 162.5 511 L 127.5 512 L 126.5 511 L 114.5 511 L 113.5 510 L 100.5 509 L 77.5 503 Q 53.9 494.6 39 477.5 Q 30.4 467.6 26 453.5 L 23 437.5 L 23 426.5 L 24 425.5 L 25 411.5 L 29 395.5 Q 40.8 366.3 49 333.5 L 50 322.5 L 51 321.5 L 51 307.5 L 52 305.5 L 51 304.5 L 51 294.5 L 49 284.5 L 41 259.5 Q 30.1 235.4 16 214.5 L 4 187.5 L 1 175.5 L 1 142.5 L 4 127.5 L 12 104.5 Q 19.2 90.2 30.5 80 Q 46.6 65.1 66.5 54 L 112.5 32 L 150.5 19 L 181.5 11 L 214.5 5 L 228.5 4 L 229.5 3 Z M 57 231 L 54 232 Q 50 233 51 240 L 54 242 L 92 242 L 91 244 L 95 248 L 106 248 L 106 243 L 107 243 L 107 248 L 117 248 L 119 246 L 120 235 L 118 232 Q 105 234 98 231 L 96 231 L 93 232 L 89 231 L 87 232 L 85 231 L 57 231 Z M 55 250 L 51 253 Q 50 257 52 259 L 51 261 Q 50 266 55 267 L 109 267 L 110 266 L 112 267 L 117 266 Q 120 265 119 261 Q 116 259 120 258 L 119 251 L 117 250 L 55 250 Z M 56 275 L 54 276 L 51 280 L 52 284 L 54 285 L 106 285 L 106 276 L 97 276 L 95 276 L 56 275 Z M 107 276 L 107 285 L 117 285 Q 120 284 119 279 L 117 276 L 107 276 Z M 121 287 L 119 288 L 116 292 L 117 296 Q 118 299 124 298 Q 128 297 127 291 Q 125 287 121 287 Z M 109 294 L 107 295 L 104 299 L 105 303 Q 106 306 112 305 Q 116 304 115 298 Q 113 294 109 294 Z M 133 294 L 131 295 L 128 299 L 129 303 Q 130 306 136 305 Q 140 304 139 298 Q 138 293 133 294 Z M 109 308 L 107 309 L 104 313 L 105 317 L 109 319 L 113 318 Q 116 317 115 312 Q 114 307 109 308 Z M 133 308 L 131 309 L 128 313 L 129 317 Q 130 320 136 319 Q 140 318 139 312 Q 138 307 133 308 Z M 121 315 L 119 316 L 116 320 L 117 324 L 121 326 L 125 325 Q 128 324 127 319 Q 126 314 121 315 Z M 139 335 L 137 336 L 135 338 L 134 344 L 132 346 L 126 347 L 123 351 L 124 355 L 127 357 L 133 358 L 135 366 Q 136 369 143 368 L 145 366 L 147 358 L 154 357 L 157 353 L 156 349 Q 154 345 149 346 Q 145 344 145 338 Q 144 334 139 335 Z " /><path fill="rgb(254,211,211)" stroke="rgb(254,211,211)" stroke-width="1" opacity="0.21568627450980393" d="M 329.5 3 L 334 3.5 L 329.5 4 L 329.5 3 Z " /><path fill="rgb(254,211,211)" stroke="rgb(254,211,211)" stroke-width="1" opacity="0.21568627450980393" d="M 337.5 4 L 341 4.5 L 337.5 5 L 337.5 4 Z " /><path fill="rgb(254,211,211)" stroke="rgb(254,211,211)" stroke-width="1" opacity="0.21568627450980393" d="M 343.5 5 L 347 5.5 L 343.5 6 L 343.5 5 Z " /><path fill="rgb(254,211,211)" stroke="rgb(254,211,211)" stroke-width="1" opacity="0.21568627450980393" d="M 350.5 6 L 353 6.5 L 350.5 7 L 350.5 6 Z " /><path fill="rgb(254,211,211)" stroke="rgb(254,211,211)" stroke-width="1" opacity="0.21568627450980393" d="M 355.5 7 L 358 7.5 L 355.5 8 L 355.5 7 Z " /><path fill="rgb(254,211,211)" stroke="rgb(254,211,211)" stroke-width="1" opacity="0.21568627450980393" d="M 360.5 8 L 363 8.5 L 360.5 9 L 360.5 8 Z " /><path fill="rgb(254,211,211)" stroke="rgb(254,211,211)" stroke-width="1" opacity="0.21568627450980393" d="M 369.5 10 L 372 10.5 L 369.5 11 L 369.5 10 Z " /><path fill="rgb(254,211,211)" stroke="rgb(254,211,211)" stroke-width="1" opacity="0.21568627450980393" d="M 443.5 38 L 444.5 40 L 443.5 38 Z " /><path fill="rgb(254,211,211)" stroke="rgb(254,211,211)" stroke-width="1" opacity="0.21568627450980393" d="M 450.5 42 L 451.5 44 L 450.5 42 Z " /><path fill="rgb(254,211,211)" stroke="rgb(254,211,211)" stroke-width="1" opacity="0.21568627450980393" d="M 453.5 44 L 454.5 46 L 453.5 44 Z " /><path fill="rgb(254,211,211)" stroke="rgb(254,211,211)" stroke-width="1" opacity="0.21568627450980393" d="M 456.5 46 L 457.5 48 L 456.5 46 Z " /><path fill="rgb(254,211,211)" stroke="rgb(254,211,211)" stroke-width="1" opacity="0.21568627450980393" d="M 459.5 48 L 460.5 50 L 459.5 48 Z " /><path fill="rgb(254,211,211)" stroke="rgb(254,211,211)" stroke-width="1" opacity="0.21568627450980393" d="M 462.5 50 L 464.5 53 L 462.5 50 Z " /><path fill="rgb(254,211,211)" stroke="rgb(254,211,211)" stroke-width="1" opacity="0.21568627450980393" d="M 466.5 53 L 470.5 58 L 466.5 53 Z " /><path fill="rgb(254,211,211)" stroke="rgb(254,211,211)" stroke-width="1" opacity="0.21568627450980393" d="M 473.5 59 L 481.5 68 L 473.5 59 Z " /><path fill="rgb(254,211,211)" stroke="rgb(254,211,211)" stroke-width="1" opacity="0.21568627450980393" d="M 484.5 71 L 487.5 75 L 484.5 71 Z " /><path fill="rgb(254,211,211)" stroke="rgb(254,211,211)" stroke-width="1" opacity="0.21568627450980393" d="M 488.5 76 L 490.5 79 L 488.5 76 Z " /><path fill="rgb(254,211,211)" stroke="rgb(254,211,211)" stroke-width="1" opacity="0.21568627450980393" d="M 491.5 80 L 492.5 82 L 491.5 80 Z " /><path fill="rgb(254,211,211)" stroke="rgb(254,211,211)" stroke-width="1" opacity="0.21568627450980393" d="M 495.5 86 L 496.5 88 L 495.5 86 Z " /><path fill="rgb(254,211,211)" stroke="rgb(254,211,211)" stroke-width="1" opacity="0.21568627450980393" d="M 498.5 91 L 499.5 93 L 498.5 91 Z " /><path fill="rgb(254,211,211)" stroke="rgb(254,211,211)" stroke-width="1" opacity="0.21568627450980393" d="M 511.5 128 L 512 130.5 L 511 130.5 L 511.5 128 Z " /><path fill="rgb(254,211,211)" stroke="rgb(254,211,211)" stroke-width="1" opacity="0.21568627450980393" d="M 511.5 152 L 512 154.5 L 511 154.5 L 511.5 152 Z " /><path fill="rgb(254,211,211)" stroke="rgb(254,211,211)" stroke-width="1" opacity="0.21568627450980393" d="M 500.5 186 L 499.5 188 L 500.5 186 Z " /><path fill="rgb(254,211,211)" stroke="rgb(254,211,211)" stroke-width="1" opacity="0.21568627450980393" d="M 497.5 191 L 496.5 193 L 497.5 191 Z " /><path fill="rgb(254,211,211)" stroke="rgb(254,211,211)" stroke-width="1" opacity="0.21568627450980393" d="M 495.5 194 L 494.5 196 L 495.5 194 Z " /><path fill="rgb(254,211,211)" stroke="rgb(254,211,211)" stroke-width="1" opacity="0.21568627450980393" d="M 106.5 196 L 107 212.5 L 106 212.5 L 106.5 196 Z " /><path fill="rgb(254,211,211)" stroke="rgb(254,211,211)" stroke-width="1" opacity="0.21568627450980393" d="M 492.5 198 L 490.5 201 L 492.5 198 Z " /><path fill="rgb(254,211,211)" stroke="rgb(254,211,211)" stroke-width="1" opacity="0.21568627450980393" d="M 489.5 202 L 478.5 214 L 489.5 202 Z " /><path fill="rgb(254,211,211)" stroke="rgb(254,211,211)" stroke-width="1" opacity="0.21568627450980393" d="M 475.5 215 L 473.5 218 L 475.5 215 Z " /><path fill="rgb(254,211,211)" stroke="rgb(254,211,211)" stroke-width="1" opacity="0.21568627450980393" d="M 471.5 218 L 470.5 220 L 471.5 218 Z " /><path fill="rgb(254,211,211)" stroke="rgb(254,211,211)" stroke-width="1" opacity="0.21568627450980393" d="M 468.5 220 L 467.5 222 L 468.5 220 Z " /><path fill="rgb(254,211,211)" stroke="rgb(254,211,211)" stroke-width="1" opacity="0.21568627450980393" d="M 465.5 222 L 464.5 224 L 465.5 222 Z " /><path fill="rgb(254,211,211)" stroke="rgb(254,211,211)" stroke-width="1" opacity="0.21568627450980393" d="M 106.5 261 L 107 265.5 L 106 265.5 L 106.5 261 Z " /><path fill="rgb(254,211,211)" stroke="rgb(254,211,211)" stroke-width="1" opacity="0.21568627450980393" d="M 423.5 314 L 424.5 316 L 423.5 314 Z " /><path fill="rgb(25,24,212)" stroke="rgb(25,24,212)" stroke-width="1" opacity="0.9882352941176471" d="M 120.5 49 L 138.5 50 L 155.5 55 Q 172.1 62.4 183 75.5 Q 195 88.5 199 109.5 L 196.5 113 L 192.5 114 L 190 113 L 186 99.5 L 182 91.5 L 170.5 77 Q 160.3 67.2 145.5 62 L 137.5 60 L 121.5 59 L 120.5 60 L 109.5 61 L 96.5 66 Q 84.4 72.4 76 82.5 L 65 101.5 L 62 112.5 L 61 126.5 L 62 127.5 L 63 139.5 L 66 148.5 L 70 156.5 L 80 170 L 90.5 178 L 104.5 185 L 116.5 188 L 134.5 188 Q 162.6 182.6 177 163.5 L 184 152.5 L 189 136.5 L 191.5 133 L 198 134 L 199 139.5 Q 191.9 167.9 171.5 183 L 156.5 192 L 145.5 196 L 137.5 197 L 136 198.5 L 140 219.5 L 148 248.5 L 167 296.5 L 172 312.5 L 177 337.5 L 178 365.5 L 177 366.5 L 177 375.5 L 174 390.5 L 162 421.5 L 160 436.5 L 157.5 439 L 154.5 440 L 150 436.5 L 150 427.5 L 152 418.5 L 160 400.5 L 166 380.5 L 167 364.5 L 168 363.5 L 168 349.5 L 167 348.5 L 167 339.5 L 166 338.5 L 165 326.5 L 162 314.5 L 138 250.5 L 129 216.5 L 126 198 L 109.5 197 L 92.5 191 Q 78.7 183.9 69 172.5 Q 51.3 154.2 51 118.5 L 54 102.5 L 61 86.5 Q 68.3 73.8 79.5 65 L 98.5 54 L 107.5 51 L 119.5 50 L 120.5 49 Z " /><path fill="rgb(25,24,212)" stroke="rgb(25,24,212)" stroke-width="1" opacity="0.9882352941176471" d="M 337.5 63 L 343 65.5 L 344 70.5 L 347.5 74 L 352.5 75 L 355 77.5 L 354 83 L 348.5 84 L 345 86.5 Q 344.8 92.3 341.5 95 Q 336.3 96.3 335 93.5 Q 334.8 87.8 331.5 85 L 325.5 84 L 323 81.5 Q 322 76 325.5 75 Q 331.9 74.9 334 70.5 Q 333 64 337.5 63 Z " /><path fill="rgb(25,24,212)" stroke="rgb(25,24,212)" stroke-width="1" opacity="0.9882352941176471" d="M 212.5 112 Q 218 111 219 114.5 Q 220.8 121.7 226.5 125 L 233.5 128 L 244.5 128 L 256.5 131 Q 272.5 137 282 149.5 L 292 168.5 L 294 186 L 301.5 182 L 309.5 182 L 315 184 L 315 139.5 L 321.5 131 L 325.5 129 L 443.5 129 L 452 135.5 L 454 139.5 L 454 251.5 L 450 259 L 440.5 263 L 408.5 263 L 404 259.5 Q 403 254 406.5 253 L 439.5 253 L 444 249.5 L 444 141.5 L 441.5 139 L 327.5 139 L 325 141.5 L 325 187.5 L 326.5 188 L 342.5 194 Q 344 191.5 349.5 193 L 353 194 L 354 199.5 L 353 202 L 346 203 L 346 211 L 350.5 211 L 354 213.5 Q 354.8 218.8 352 220.5 L 365.5 231 L 367.5 229 L 376.5 229 Q 380 230 379 235.5 Q 377.3 239.3 371 238.5 Q 403.4 274.6 401 345.5 L 397 364.5 L 389 382.5 Q 381 396 369.5 406 Q 337.6 433.6 284.5 440 L 280 436.5 Q 279 430 283.5 429 Q 340.5 423 371 390.5 Q 383.4 376.9 389 356.5 L 391 345.5 L 391 318.5 L 386 289.5 L 378 267.5 Q 369.3 249.3 355.5 236 L 339.5 224 L 331.5 223 Q 322.4 225.4 318 232.5 L 285 302.5 L 275.5 312 L 260.5 319 L 244.5 319 Q 229 315.5 221 304.5 L 214 291.5 L 187 226 L 175.5 226 L 172 223.5 Q 170.8 217.3 174.5 216 L 181.5 216 L 182 214.5 L 178 206.5 L 178 203.5 Q 178.8 199.3 184.5 200 L 187 201 L 224 289.5 Q 227.1 297.9 233.5 303 L 245.5 309 L 258.5 309 Q 270.1 306.1 276 297.5 Q 294 264 309 227.5 L 314.5 221 L 326.5 214 L 334.5 213 L 336 211.5 Q 338 203 333.5 201 L 308.5 192 L 303.5 192 L 283 206.5 L 277 217.5 L 266 244.5 L 261.5 250 Q 255.8 250.8 255 246.5 L 230 182.5 L 228 173.5 L 229 171 L 234.5 170 L 239 175.5 L 260.5 231 L 271 206.5 L 281.5 194 Q 284.5 194.9 283 190.5 L 284 189.5 L 284 179.5 Q 280.4 158.6 266.5 148 L 254.5 141 L 243.5 138 L 228.5 137 L 217 131 L 212 124.5 L 209 115.5 L 212.5 112 Z " /><path fill="rgb(25,24,212)" stroke="rgb(25,24,212)" stroke-width="1" opacity="0.9882352941176471" d="M 341.5 176 L 351.5 176 L 354 178.5 Q 355 183 352.5 184 Q 349.3 186.3 342.5 185 L 339 179.5 L 341.5 176 Z " /><path fill="rgb(25,24,212)" stroke="rgb(25,24,212)" stroke-width="1" opacity="0.9882352941176471" d="M 366.5 176 L 376.5 176 L 379 178.5 Q 380 184 376.5 185 L 367.5 185 L 365 182.5 Q 363.8 177.3 366.5 176 Z " /><path fill="rgb(25,24,212)" stroke="rgb(25,24,212)" stroke-width="1" opacity="0.9882352941176471" d="M 392.5 176 L 402.5 176 L 404 177.5 Q 405.3 183.8 401.5 185 L 392.5 185 L 390 182.5 Q 389 177 392.5 176 Z " /><path fill="rgb(25,24,212)" stroke="rgb(25,24,212)" stroke-width="1" opacity="0.9882352941176471" d="M 368.5 193 Q 376.5 191.5 379 195.5 Q 380.3 200.8 377.5 202 L 368.5 203 L 365 200.5 Q 363.8 195.3 366.5 194 L 368.5 193 Z " /><path fill="rgb(25,24,212)" stroke="rgb(25,24,212)" stroke-width="1" opacity="0.9882352941176471" d="M 393.5 193 Q 401.5 191.5 404 195.5 Q 405.3 200.8 402.5 202 L 393.5 203 L 390 200.5 Q 388.8 195.3 391.5 194 L 393.5 193 Z " /><path fill="rgb(25,24,212)" stroke="rgb(25,24,212)" stroke-width="1" opacity="0.9882352941176471" d="M 367.5 211 L 376.5 211 L 379 213.5 Q 380 219 376.5 220 L 366.5 220 L 365 218.5 Q 363.8 212.3 367.5 211 Z " /><path fill="rgb(25,24,212)" stroke="rgb(25,24,212)" stroke-width="1" opacity="0.9882352941176471" d="M 392.5 211 L 401.5 211 L 404 213.5 Q 405.3 218.8 402.5 220 L 392.5 220 L 390 217.5 Q 389 212 392.5 211 Z " /><path fill="rgb(25,24,212)" stroke="rgb(25,24,212)" stroke-width="1" opacity="0.9882352941176471" d="M 95.5 213 L 115.5 213 L 119 215.5 L 120 219.5 L 117.5 223 L 115.5 224 L 95.5 224 L 91 220.5 Q 90 215 93.5 214 L 95.5 213 Z " /><path fill="rgb(25,24,212)" stroke="rgb(25,24,212)" stroke-width="1" opacity="0.9882352941176471" d="M 54.5 232 L 116.5 232 L 120 235.5 Q 120.8 241.3 116.5 242 L 54.5 242 L 51 238.5 L 52 233 L 54.5 232 Z " /><path fill="rgb(25,24,212)" stroke="rgb(25,24,212)" stroke-width="1" opacity="0.9882352941176471" d="M 55.5 250 L 115.5 250 L 119 252.5 L 120 256.5 L 117.5 260 L 84.5 260 L 83.5 261 L 79.5 260 L 78.5 261 L 57.5 261 L 52 258.5 L 51 253.5 L 55.5 250 Z " /><path fill="rgb(25,24,212)" stroke="rgb(25,24,212)" stroke-width="1" opacity="0.9882352941176471" d="M 437.5 295 Q 443.3 294.3 444 298.5 Q 443 305 447.5 306 Q 454 305 455 309.5 Q 455.8 314.3 452.5 315 L 447.5 316 L 444 319.5 Q 444.7 325.7 440.5 327 Q 435.8 327.8 435 324.5 L 434 319.5 L 430.5 316 Q 424.3 316.7 423 312.5 Q 422.3 306.8 426.5 306 Q 433 307 434 302.5 Q 433.3 296.3 437.5 295 Z " /></svg>